<svg version="1.1" id="Layer_1" xmlns="http://www.w3.org/2000/svg" xmlns:xlink="http://www.w3.org/1999/xlink" x="0px" y="0px"
	 width="100%" viewBox="0 0 94 94" enable-background="new 0 0 94 94" xml:space="preserve">
<path fill="#000000" opacity="1.000000" stroke="none" 
	d="
M1.000000,76.000000 
	C1.000000,51.044895 1.000000,26.089792 1.000000,1.067344 
	C32.232048,1.067344 63.464272,1.067344 95.000000,1.067344 
	C95.000000,25.686731 95.000000,50.374706 94.770416,75.542496 
	C94.540825,76.022301 94.087044,75.948677 94.000053,75.680481 
	C93.602631,75.212173 93.292191,75.012070 92.967545,74.443726 
	C91.910126,73.674194 90.866913,73.272896 89.706863,72.627090 
	C89.072006,71.903893 88.553986,71.425209 88.012360,70.698853 
	C87.988762,70.451172 87.831543,69.978088 87.904739,69.665276 
	C87.653137,68.946945 87.328331,68.541420 86.677521,68.058525 
	C85.835869,67.674522 85.320213,67.367889 84.864265,66.795868 
	C84.625687,66.407082 84.327400,66.283691 84.065292,66.150452 
	C84.101479,66.140602 84.138565,66.075417 84.196121,65.653473 
	C84.447205,56.484482 84.640732,47.737423 84.903320,38.625893 
	C85.010391,37.520714 85.048393,36.780010 85.426132,36.019440 
	C86.405243,35.037743 87.044624,34.075924 87.858757,32.845036 
	C88.081291,32.367477 88.129059,32.158985 88.514191,31.939144 
	C89.183815,31.271311 89.516068,30.614824 89.873657,29.692299 
	C89.591141,29.328142 89.283279,29.230026 88.769684,29.051483 
	C88.563942,28.971052 88.122673,28.949476 88.004517,28.660610 
	C86.991585,27.909233 86.096802,27.446722 85.134598,26.626942 
	C83.728966,25.477926 82.390762,24.686180 80.980125,23.657516 
	C80.712715,23.117908 80.435295,22.961430 80.039299,22.605659 
	C79.276520,22.157469 78.549881,22.054777 77.469696,21.960342 
	C76.060883,21.614254 75.005608,21.259912 73.974022,20.560432 
	C73.653122,19.520679 73.308533,18.826067 72.755127,18.047989 
	C72.546318,17.964523 72.096855,17.948423 71.965027,17.626896 
	C70.571846,16.855572 69.310486,16.405775 67.814117,15.549706 
	C66.696770,15.323300 65.814430,15.503171 65.142570,15.384845 
	C64.262932,14.693764 63.172810,14.300879 61.950455,13.605255 
	C59.908226,12.504659 57.998219,11.706801 55.955956,10.606703 
	C53.925648,9.521503 52.027607,8.738545 49.982098,7.636400 
	C48.458282,5.905229 47.178177,4.925882 46.659027,7.975704 
	C46.519890,7.958715 46.241581,7.992389 46.116173,7.727442 
	C45.661827,7.357223 45.332890,7.251951 44.664524,7.155502 
	C43.166786,8.126657 42.008476,9.088988 40.663811,10.066442 
	C40.477455,10.081567 40.118446,10.202384 39.763977,10.100389 
	C37.610092,11.053436 35.810677,12.108478 33.667435,13.081579 
	C32.191368,13.647066 31.059120,14.294493 29.618923,14.970136 
	C28.856241,15.300044 28.401510,15.601736 27.708714,15.954800 
	C27.470648,16.006170 27.010426,16.165710 26.654795,16.178116 
	C24.500774,17.096708 22.702385,18.002893 20.628899,19.008228 
	C19.901035,19.461826 19.448267,19.816273 18.630816,20.189655 
	C15.009278,21.859364 11.631063,23.315584 8.545248,25.240540 
	C6.930310,26.247953 4.727217,27.927645 7.909459,30.304523 
	C8.051209,31.031504 8.117225,31.448351 8.144940,32.230770 
	C8.381732,33.444775 8.656824,34.293205 9.073535,35.414371 
	C9.802258,35.849426 10.389362,36.011745 10.980419,36.463127 
	C10.945673,37.136688 10.906974,37.521187 10.540047,38.118496 
	C10.197054,39.889793 10.182289,41.448284 10.095187,43.463627 
	C10.070709,47.945427 10.118569,51.970371 10.091465,56.449570 
	C10.043821,60.330013 10.071142,63.756210 10.019066,67.420845 
	C9.983962,67.989037 10.028257,68.318779 9.830009,68.811096 
	C9.379326,69.277344 9.171185,69.581024 8.660811,70.018570 
	C7.882752,71.059479 7.406925,71.966499 6.645763,72.997116 
	C5.570966,73.698540 4.781504,74.276375 3.674522,74.909019 
	C2.874163,75.282562 2.391326,75.601288 1.683673,75.966202 
	C1.458857,76.012390 1.000000,76.000000 1.000000,76.000000 
z"/>
<path fill="#000000" opacity="1.000000" stroke="none" 
	d="
M95.000000,86.000000 
	C95.000000,88.987030 95.000000,91.974060 95.000000,94.967422 
	C63.666660,94.973755 32.333328,94.973755 1.000000,94.973755 
	C1.000000,92.292366 1.000000,89.637238 1.285703,86.544029 
	C2.036698,86.438583 2.501990,86.771217 3.192230,87.442383 
	C5.613773,87.798157 7.810369,87.815392 10.426796,87.899109 
	C12.900361,87.545288 16.338114,89.636154 16.508057,85.039368 
	C18.254280,85.032494 19.597824,85.053513 20.971436,85.053009 
	C21.001503,85.031479 20.940010,85.052490 21.015385,85.306717 
	C21.430338,85.389137 21.769915,85.217323 22.508701,85.021881 
	C24.235769,85.011765 25.563627,85.025284 27.060913,85.385010 
	C28.751860,86.485199 30.261286,87.859970 31.796915,87.889893 
	C40.191753,88.053459 48.593033,87.886642 57.436546,87.908150 
	C59.710403,87.986504 61.581566,88.227142 63.355335,87.914787 
	C64.653854,87.686104 65.824440,86.730911 67.416618,86.053169 
	C69.872925,85.697319 71.964653,85.387840 74.409622,85.044662 
	C75.473892,85.029694 76.184921,85.048416 76.825676,85.391296 
	C76.682297,89.387344 79.362411,87.565392 81.402672,87.908836 
	C83.196724,87.932449 84.580544,87.886047 86.390686,87.908234 
	C89.544678,87.317879 92.272339,86.658936 95.000000,86.000000 
z"/>
<path fill="#BB6C0B" opacity="1.000000" stroke="none" 
	d="
M95.000000,85.750000 
	C92.272339,86.658936 89.544678,87.317879 86.291916,87.683464 
	C85.834328,86.628510 85.901848,85.866898 86.376465,85.068237 
	C88.528786,84.690529 90.273994,84.349876 92.373169,84.102264 
	C92.962326,84.260223 93.197525,84.325119 93.453644,84.429321 
	C93.474556,84.468613 93.651428,84.482124 93.981857,84.629059 
	C94.541534,84.850670 94.770767,84.925331 95.000000,85.000000 
	C95.000000,85.000000 95.000000,85.500000 95.000000,85.750000 
z"/>
<path fill="#EDC957" opacity="1.000000" stroke="none" 
	d="
M94.087036,75.948677 
	C94.087044,75.948677 94.540825,76.022301 94.770416,76.011154 
	C95.000000,77.066788 95.000000,78.133575 94.743515,79.574181 
	C94.317871,79.978371 94.148712,80.008736 93.739929,80.001678 
	C93.500320,79.964241 93.020981,80.040115 92.708740,79.981018 
	C91.975494,79.874573 91.554482,79.827225 91.097473,79.583946 
	C91.061478,79.388023 91.004951,78.990288 91.027756,78.820892 
	C91.050560,78.651505 91.116898,78.316170 91.339233,78.249939 
	C91.561577,78.183708 91.986420,77.997177 92.317581,77.952362 
	C93.128174,77.254585 93.607605,76.601631 94.087036,75.948677 
z"/>
<path fill="#CCA72A" opacity="1.000000" stroke="none" 
	d="
M1.000000,84.000000 
	C1.000000,82.933212 1.000000,81.866425 1.244532,80.402771 
	C1.489063,80.005913 1.978107,80.013283 2.242986,80.078796 
	C2.689764,80.145920 2.871663,80.147537 3.032248,80.524002 
	C2.980688,81.899895 2.950442,82.900940 2.694175,83.936905 
	C2.468154,83.971825 2.010974,84.007729 1.758238,84.004868 
	C1.337001,84.001343 1.168500,84.000671 1.000000,84.000000 
z"/>
<path fill="#FEE281" opacity="1.000000" stroke="none" 
	d="
M1.978108,80.013283 
	C1.978107,80.013283 1.489063,80.005913 1.244532,80.002960 
	C1.000000,78.933212 1.000000,77.866425 1.000000,76.399818 
	C1.000000,76.000000 1.458857,76.012390 1.759651,76.329285 
	C2.469255,77.248795 2.878066,77.851395 3.245564,78.533623 
	C3.204251,78.613243 3.176696,78.798645 2.912181,78.931488 
	C2.424480,79.380653 2.201294,79.696968 1.978108,80.013283 
z"/>
<path fill="#C75D05" opacity="1.000000" stroke="none" 
	d="
M93.979546,80.039108 
	C94.148712,80.008736 94.317871,79.978371 94.743515,79.973999 
	C95.000000,81.388893 95.000000,82.777779 95.000000,84.583336 
	C94.770767,84.925331 94.541534,84.850670 93.987045,84.594360 
	C93.661789,84.412712 93.707809,84.355148 93.781891,83.925186 
	C93.897163,82.343178 93.938354,81.191147 93.979546,80.039108 
z"/>
<path fill="#CC9E23" opacity="1.000000" stroke="none" 
	d="
M1.000000,84.333313 
	C1.168500,84.000671 1.337001,84.001343 1.860983,84.219116 
	C2.404189,84.699738 2.641524,84.906235 2.945449,85.396851 
	C2.964046,86.193268 2.965664,86.648560 2.967282,87.103844 
	C2.501990,86.771217 2.036698,86.438583 1.285703,86.052979 
	C1.000000,85.555542 1.000000,85.111084 1.000000,84.333313 
z"/>
<path fill="#FEDB79" opacity="1.000000" stroke="none" 
	d="
M85.202026,26.984211 
	C86.096802,27.446722 86.991585,27.909233 87.863739,29.037205 
	C87.953011,30.451942 88.064919,31.201216 88.176819,31.950491 
	C88.129059,32.158985 88.081291,32.367477 87.628433,32.868317 
	C86.528549,33.058590 85.833755,32.956509 85.008698,32.633854 
	C84.566963,32.334171 84.255486,32.255062 83.493591,32.120686 
	C79.686424,32.094364 76.329681,32.123314 72.562408,32.095024 
	C70.771088,32.038918 69.390305,32.040047 67.902893,31.800268 
	C67.526093,31.338392 67.255920,31.117426 66.974297,30.519728 
	C65.604591,29.057716 64.246330,27.972439 62.609402,26.664499 
	C62.701649,25.526754 62.845081,23.757727 63.243214,21.986053 
	C63.667721,21.982956 63.837528,21.982506 64.207367,22.259857 
	C68.174889,26.973089 72.717293,27.255077 78.049080,25.073977 
	C78.799019,25.128330 79.228615,25.131767 79.855469,25.364254 
	C80.416153,25.754742 80.779579,25.916182 81.392929,26.240068 
	C82.829247,26.596415 84.015633,26.790314 85.202026,26.984211 
z"/>
<path fill="#FDEA97" opacity="1.000000" stroke="none" 
	d="
M46.241581,7.992389 
	C46.241581,7.992389 46.519890,7.958715 47.019821,7.988486 
	C47.999218,8.020473 48.478687,8.022689 48.966377,8.351551 
	C48.976330,9.113853 48.978054,9.549508 49.075058,10.217287 
	C49.446861,10.624799 49.723381,10.800187 50.174210,11.231956 
	C51.500092,11.949622 52.651665,12.410907 54.067665,13.066032 
	C53.887161,14.833553 53.442219,16.407234 52.703686,17.855780 
	C51.271969,17.151793 50.133846,16.572941 48.665905,15.967112 
	C46.209347,16.992054 44.082607,18.043972 41.570663,19.062666 
	C38.794743,19.706697 36.404026,20.383953 33.965008,20.720024 
	C33.509735,19.855293 33.102772,19.331747 32.725540,18.629776 
	C32.755276,18.451353 32.715305,18.091801 32.809013,17.854992 
	C32.952236,17.455778 33.001743,17.293371 33.260307,17.014385 
	C33.806759,16.703213 33.892490,16.429979 33.818977,15.967482 
	C33.911388,15.856859 34.108795,15.646763 34.400108,15.790907 
	C35.471619,15.709655 36.251808,15.484258 37.345039,15.169449 
	C38.453918,14.740594 39.249756,14.401149 40.401642,13.990895 
	C42.502419,12.788145 44.247147,11.656203 46.131470,10.589521 
	C46.271057,10.654780 46.416458,10.423079 46.416458,10.423079 
	C46.416458,10.423079 46.013378,10.442242 45.984100,10.082949 
	C45.978519,9.484505 46.002209,9.245354 46.086227,8.754112 
	C46.178238,8.332145 46.209911,8.162267 46.241581,7.992389 
z"/>
<path fill="#FCC842" opacity="1.000000" stroke="none" 
	d="
M10.072553,68.648529 
	C10.028257,68.318779 9.983962,67.989037 10.356669,67.316841 
	C12.179420,65.313614 13.585169,63.652828 15.378158,61.993942 
	C17.686424,61.655346 19.607452,61.314854 21.628117,61.345646 
	C21.791643,62.483170 21.855534,63.249409 21.899082,64.398872 
	C22.163620,66.506004 22.448502,68.229904 22.340351,69.966049 
	C19.960648,69.642113 17.973972,69.305946 15.878479,68.786171 
	C15.451785,68.752815 15.133909,68.903069 14.523213,69.053932 
	C13.522423,69.280273 12.814454,69.506004 11.768602,69.691200 
	C10.977997,69.316620 10.525275,68.982574 10.072553,68.648529 
z"/>
<path fill="#FEE088" opacity="1.000000" stroke="none" 
	d="
M77.728737,25.023058 
	C72.717293,27.255077 68.174889,26.973089 64.467896,21.995300 
	C66.242630,21.308973 67.956879,21.165007 70.030434,21.058872 
	C70.630585,21.095264 70.871429,21.093826 71.368225,21.102539 
	C71.794800,21.119610 71.965424,21.126534 72.160629,21.315971 
	C72.396568,21.370623 72.607933,21.242754 72.873123,21.034225 
	C72.926956,20.953568 73.044716,20.799469 73.265373,20.875063 
	C73.486031,20.950657 73.950333,20.905569 73.950333,20.905571 
	C75.005608,21.259912 76.060883,21.614254 77.491554,22.342091 
	C77.820877,23.484745 77.774803,24.253901 77.728737,25.023058 
z"/>
<path fill="#D9A144" opacity="1.000000" stroke="none" 
	d="
M84.834259,38.990368 
	C84.640732,47.737423 84.447205,56.484482 83.924896,65.789505 
	C83.398239,66.308319 83.200363,66.269165 83.003807,65.741089 
	C83.005852,56.169910 83.006592,47.087654 83.251877,38.095459 
	C83.942368,38.453800 84.388313,38.722084 84.834259,38.990368 
z"/>
<path fill="#F2CB68" opacity="1.000000" stroke="none" 
	d="
M10.166430,55.995319 
	C10.118569,51.970371 10.070709,47.945427 10.446232,43.512215 
	C12.245596,43.403194 13.621578,43.702438 14.999012,44.445740 
	C15.002345,47.260376 15.004229,49.630955 15.003088,52.251244 
	C15.000065,52.500950 14.994577,53.000374 14.639779,53.008640 
	C12.912130,54.009708 11.539280,55.002514 10.166430,55.995319 
z"/>
<path fill="#F0C85D" opacity="1.000000" stroke="none" 
	d="
M10.091465,56.449570 
	C11.539280,55.002514 12.912130,54.009708 14.641901,53.408928 
	C15.002757,54.868687 15.006692,55.936417 15.008398,57.419975 
	C15.001084,59.221214 14.996001,60.606628 14.990918,61.992046 
	C13.585169,63.652828 12.179420,65.313614 10.436068,67.078400 
	C10.071142,63.756210 10.043821,60.330013 10.091465,56.449570 
z"/>
<path fill="#FEFCD8" opacity="1.000000" stroke="none" 
	d="
M7.833723,29.994389 
	C4.727217,27.927645 6.930310,26.247953 8.545248,25.240540 
	C11.631063,23.315584 15.009278,21.859364 18.632656,20.523293 
	C18.981375,21.282480 18.963570,21.726969 18.689289,22.360332 
	C18.328028,23.403353 18.223240,24.257492 17.801208,25.250895 
	C16.612135,25.674606 15.740307,25.959057 14.864758,25.900810 
	C14.312070,25.253002 13.763104,24.947895 13.214138,24.642788 
	C12.830576,25.785059 12.447014,26.927332 11.812188,28.217266 
	C11.368583,28.888903 11.176240,29.412878 10.590033,29.923180 
	C9.408687,29.937798 8.621204,29.966093 7.833723,29.994389 
z"/>
<path fill="#E99C20" opacity="1.000000" stroke="none" 
	d="
M3.992043,74.854202 
	C4.781504,74.276375 5.570966,73.698540 6.889010,73.109055 
	C7.594967,73.077354 7.772342,73.057312 7.900155,73.099625 
	C7.850592,73.161995 7.912268,73.308907 8.134190,73.507935 
	C9.283450,73.582993 10.210790,73.459015 11.422150,73.318504 
	C12.085445,73.305450 12.464722,73.308929 13.056557,73.517822 
	C13.838556,73.888359 14.407996,74.053505 14.983944,74.584976 
	C14.990181,75.935944 14.989909,76.920563 14.552626,77.940849 
	C12.061121,78.016914 10.006629,78.057312 7.723180,78.040543 
	C7.494224,77.983376 7.022993,77.956932 7.021004,77.980148 
	C7.019015,78.003357 7.056771,77.972549 7.063566,77.628990 
	C6.044256,76.475021 5.018149,75.664612 3.992043,74.854202 
z"/>
<path fill="#EDC364" opacity="1.000000" stroke="none" 
	d="
M14.997561,44.001678 
	C13.621578,43.702438 12.245596,43.403194 10.518570,43.055363 
	C10.182289,41.448284 10.197054,39.889793 10.908010,38.136070 
	C12.085718,37.854000 12.567233,37.767159 13.319891,37.665260 
	C13.766515,37.604637 13.941996,37.559067 14.310141,37.626183 
	C14.502805,37.738869 14.943417,37.810509 15.200802,37.973267 
	C15.978229,38.741634 16.498270,39.347244 16.891151,40.250111 
	C16.175180,41.698807 15.586370,42.850243 14.997561,44.001678 
z"/>
<path fill="#FEF5C9" opacity="1.000000" stroke="none" 
	d="
M53.803234,12.872192 
	C52.651665,12.410907 51.500092,11.949622 50.053474,11.021062 
	C49.554001,10.288782 49.294453,10.099240 48.979778,9.985163 
	C48.978054,9.549508 48.976330,9.113853 49.259262,8.330771 
	C49.739136,7.974093 49.934349,7.964841 50.129562,7.955588 
	C52.027607,8.738545 53.925648,9.521503 55.915096,10.643113 
	C56.006500,10.981766 55.932446,11.062363 55.617691,11.094946 
	C54.803036,11.709084 54.303135,12.290638 53.803234,12.872192 
z"/>
<path fill="#F3E4D8" opacity="1.000000" stroke="none" 
	d="
M83.002495,66.230011 
	C83.200363,66.269165 83.398239,66.308319 83.867340,66.211441 
	C84.138565,66.075417 84.101479,66.140602 84.121468,66.351540 
	C84.314598,66.792397 84.535629,66.958656 84.804558,67.061264 
	C85.320213,67.367889 85.835869,67.674522 86.677444,68.389015 
	C87.026199,69.236755 87.049026,69.676628 87.074066,70.324326 
	C87.076279,70.532143 87.109711,70.946449 87.048759,71.320511 
	C86.955643,71.945175 86.923477,72.195786 86.568390,72.454773 
	C85.164185,72.611328 84.082909,72.759506 82.857765,72.795166 
	C82.515266,72.538322 82.345337,72.365738 82.428864,71.953964 
	C82.755020,70.794838 82.856430,69.846619 82.789703,68.706482 
	C82.100487,68.107124 81.579391,67.699677 81.336571,67.228088 
	C82.077393,66.852631 82.539948,66.541321 83.002495,66.230011 
z"/>
<path fill="#FDFCCF" opacity="1.000000" stroke="none" 
	d="
M20.903996,18.909081 
	C22.702385,18.002893 24.500774,17.096708 26.649784,16.586323 
	C26.989855,18.073648 26.979305,19.165174 26.764389,20.487354 
	C25.386185,21.156986 24.212345,21.595959 22.911934,21.772200 
	C22.250113,20.754189 21.714869,19.998913 21.114689,19.156723 
	C21.049757,19.069809 20.903996,18.909079 20.903996,18.909081 
z"/>
<path fill="#FEFDD7" opacity="1.000000" stroke="none" 
	d="
M46.025898,9.006202 
	C46.002209,9.245354 45.978519,9.484505 45.973286,10.102242 
	C45.991745,10.480826 45.991879,10.524262 45.991879,10.524262 
	C44.247147,11.656203 42.502419,12.788145 40.369751,13.771032 
	C39.981819,13.621978 39.887337,13.189055 39.923038,12.810772 
	C39.984814,11.926539 40.010883,11.420591 40.203224,10.800865 
	C40.566353,10.502872 40.726578,10.290948 40.850163,10.051319 
	C42.008476,9.088988 43.166786,8.126657 44.693542,7.436045 
	C45.383289,8.140576 45.704594,8.573389 46.025898,9.006202 
z"/>
<path fill="#FDFCD4" opacity="1.000000" stroke="none" 
	d="
M40.036957,10.914642 
	C40.010883,11.420591 39.984814,11.926539 39.614510,12.749063 
	C38.524185,13.796713 37.778091,14.527786 37.032001,15.258860 
	C36.251808,15.484258 35.471619,15.709655 34.487999,15.603798 
	C34.193470,14.569536 34.102364,13.866528 34.011257,13.163519 
	C35.810677,12.108478 37.610092,11.053436 39.743439,10.278452 
	C40.077366,10.558509 40.036957,10.914642 40.036957,10.914642 
z"/>
<path fill="#FDF7E3" opacity="1.000000" stroke="none" 
	d="
M12.843997,73.312416 
	C12.464722,73.308929 12.085445,73.305450 11.030163,73.173790 
	C9.540193,73.133377 8.726231,73.221138 7.912268,73.308907 
	C7.912268,73.308907 7.850592,73.161995 8.059737,72.801071 
	C8.500269,71.588333 8.731656,70.736519 8.963043,69.884697 
	C9.171185,69.581024 9.379326,69.277344 9.830009,68.811096 
	C10.525275,68.982574 10.977997,69.316620 11.910873,69.953247 
	C12.841046,70.901840 13.291066,71.547867 13.614462,72.395599 
	C13.250766,72.815445 13.036152,73.053818 12.843997,73.312416 
z"/>
<path fill="#FEFDD7" opacity="1.000000" stroke="none" 
	d="
M33.667435,13.081579 
	C34.102364,13.866528 34.193470,14.569536 34.196686,15.459654 
	C34.108795,15.646763 33.911388,15.856859 33.657654,16.102039 
	C33.209408,16.573740 33.091850,16.834990 33.051254,17.130966 
	C33.001743,17.293371 32.952236,17.455778 32.641754,17.834196 
	C32.380787,18.050209 32.040318,18.011856 31.784374,17.847595 
	C31.345739,17.119045 31.163048,16.554754 30.869453,15.758030 
	C30.481327,15.331038 30.204100,15.136479 29.926874,14.941919 
	C31.059120,14.294493 32.191368,13.647066 33.667435,13.081579 
z"/>
<path fill="#FDF4C6" opacity="1.000000" stroke="none" 
	d="
M62.082684,13.907995 
	C63.172810,14.300879 64.262932,14.693764 65.160324,15.576883 
	C65.050835,16.445353 65.134064,16.823586 64.966743,17.439854 
	C63.815525,17.783113 62.914867,17.888344 62.051155,17.599277 
	C62.038803,16.155590 61.989502,15.106198 61.976044,14.019813 
	C62.011883,13.982820 62.082684,13.907995 62.082684,13.907995 
z"/>
<path fill="#FDF4C6" opacity="1.000000" stroke="none" 
	d="
M56.047356,10.945355 
	C57.998219,11.706801 59.908226,12.504659 61.950455,13.605255 
	C62.082684,13.907995 62.011883,13.982820 61.564697,13.992696 
	C59.743752,13.995266 58.369995,13.987960 56.966789,13.679581 
	C56.601597,12.902313 56.265850,12.426119 55.902557,11.727961 
	C55.875011,11.505995 55.932446,11.062363 55.932446,11.062363 
	C55.932446,11.062363 56.006500,10.981766 56.047356,10.945355 
z"/>
<path fill="#FEECA6" opacity="1.000000" stroke="none" 
	d="
M3.674522,74.909019 
	C5.018149,75.664612 6.044256,76.475021 6.701336,77.767212 
	C5.317165,78.317329 4.302021,78.385666 3.286877,78.454002 
	C2.878066,77.851395 2.469255,77.248795 1.984466,76.283096 
	C2.391326,75.601288 2.874163,75.282562 3.674522,74.909019 
z"/>
<path fill="#FDF0C2" opacity="1.000000" stroke="none" 
	d="
M71.112282,21.092388 
	C70.871429,21.093826 70.630585,21.095264 70.041962,20.741852 
	C69.100060,19.295923 68.505920,18.204844 67.952301,16.825052 
	C68.011589,16.342886 68.030357,16.149431 68.049126,15.955978 
	C69.310486,16.405775 70.571846,16.855572 71.669296,17.818880 
	C71.374344,19.252390 71.243317,20.172390 71.112282,21.092388 
z"/>
<path fill="#FDE6A4" opacity="1.000000" stroke="none" 
	d="
M85.134598,26.626942 
	C84.015633,26.790314 82.829247,26.596415 81.341431,25.877533 
	C81.044189,24.866510 81.048370,24.380472 81.052551,23.894436 
	C82.390762,24.686180 83.728966,25.477926 85.134598,26.626942 
z"/>
<path fill="#FBE0A8" opacity="1.000000" stroke="none" 
	d="
M86.891319,72.446388 
	C86.923477,72.195786 86.955643,71.945175 87.279739,71.337448 
	C87.571663,70.980339 88.035965,70.946526 88.035965,70.946526 
	C88.553986,71.425209 89.072006,71.903893 89.600449,72.917618 
	C89.586464,73.656708 89.562065,73.860756 89.544785,74.047966 
	C89.551895,74.031120 89.552238,73.995392 89.174667,73.903000 
	C88.284180,73.744713 87.771248,73.678810 87.215454,73.410767 
	C87.037064,72.969940 86.943306,72.715858 86.891319,72.446388 
z"/>
<path fill="#FDEAAE" opacity="1.000000" stroke="none" 
	d="
M78.049080,25.073977 
	C77.774803,24.253901 77.820877,23.484745 77.845093,22.333838 
	C78.549881,22.054777 79.276520,22.157469 80.003159,22.974924 
	C79.888176,24.171528 79.773193,24.653366 79.658211,25.135204 
	C79.228615,25.131767 78.799019,25.128330 78.049080,25.073977 
z"/>
<path fill="#FDFACA" opacity="1.000000" stroke="none" 
	d="
M18.945763,22.171455 
	C18.963570,21.726969 18.981375,21.282480 18.997339,20.504356 
	C19.448267,19.816273 19.901035,19.461826 20.628899,19.008228 
	C20.903996,18.909079 21.049757,19.069809 21.051712,19.534502 
	C20.994286,21.032595 20.934900,22.065994 20.712044,23.243172 
	C20.353626,23.605186 20.193674,23.846607 19.823948,23.939926 
	C19.368042,23.236242 19.156902,22.703848 18.945763,22.171455 
z"/>
<path fill="#FBE0A8" opacity="1.000000" stroke="none" 
	d="
M94.000046,75.680481 
	C93.607605,76.601631 93.128174,77.254585 92.228058,77.711975 
	C91.812737,76.789536 91.818108,76.062668 92.103012,75.182640 
	C92.582283,74.956978 92.782021,74.884468 92.981758,74.811966 
	C93.292191,75.012070 93.602631,75.212173 94.000046,75.680481 
z"/>
<path fill="#D09C44" opacity="1.000000" stroke="none" 
	d="
M85.138962,32.854431 
	C85.833755,32.956509 86.528549,33.058590 87.453674,33.137390 
	C87.044624,34.075924 86.405243,35.037743 85.399429,36.002178 
	C85.032997,36.004791 84.979591,35.970890 85.003258,35.582188 
	C85.064270,34.413799 85.101616,33.634117 85.138962,32.854431 
z"/>
<path fill="#E5A94C" opacity="1.000000" stroke="none" 
	d="
M10.976466,36.174065 
	C10.389362,36.011745 9.802258,35.849426 9.200787,35.107784 
	C9.460621,33.707680 9.734823,32.886902 10.285964,32.029106 
	C10.743429,31.946211 10.923957,31.900328 11.121256,32.020279 
	C11.138025,32.186111 11.091446,32.511951 11.122208,32.701607 
	C11.139770,33.163910 11.201026,33.418739 11.303535,34.037865 
	C11.207496,34.927410 11.144658,35.434845 11.032360,35.989716 
	C10.982901,36.037155 10.976466,36.174065 10.976466,36.174065 
z"/>
<path fill="#E9B44C" opacity="1.000000" stroke="none" 
	d="
M92.967545,74.443726 
	C92.782021,74.884468 92.582283,74.956978 91.756149,75.143990 
	C90.599060,74.860603 90.068367,74.462708 89.537666,74.064812 
	C89.562065,73.860756 89.586464,73.656708 89.717285,73.162140 
	C90.866913,73.272896 91.910126,73.674194 92.967545,74.443726 
z"/>
<path fill="#F4C54E" opacity="1.000000" stroke="none" 
	d="
M11.104486,31.854445 
	C10.923957,31.900328 10.743429,31.946211 9.996408,31.912086 
	C9.014356,31.843121 8.598798,31.854160 8.183241,31.865198 
	C8.117225,31.448351 8.051209,31.031504 7.909459,30.304523 
	C8.621204,29.966093 9.408687,29.937798 10.586088,30.245913 
	C11.018834,31.006363 11.061660,31.430403 11.104486,31.854445 
z"/>
<path fill="#FDFFFF" opacity="1.000000" stroke="none" 
	d="
M26.968754,20.256699 
	C26.979305,19.165174 26.989855,18.073648 27.005417,16.573917 
	C27.010426,16.165710 27.470648,16.006170 27.732906,16.217247 
	C28.016172,16.602905 28.037180,16.777485 28.144342,17.185883 
	C28.412838,17.716234 28.670052,17.916712 29.006111,18.290230 
	C29.021799,18.738354 29.033518,18.917385 28.848877,19.328045 
	C28.091263,19.792015 27.530008,20.024357 26.968754,20.256699 
z"/>
<path fill="#FDEEB5" opacity="1.000000" stroke="none" 
	d="
M67.814117,15.549705 
	C68.030357,16.149431 68.011589,16.342886 67.614929,16.776676 
	C66.563789,17.078617 65.890549,17.140219 65.217300,17.201820 
	C65.134064,16.823586 65.050835,16.445353 64.949844,15.875080 
	C65.814430,15.503171 66.696770,15.323300 67.814117,15.549705 
z"/>
<path fill="#FDFBD3" opacity="1.000000" stroke="none" 
	d="
M49.982098,7.636400 
	C49.934349,7.964841 49.739136,7.974093 49.251038,8.004125 
	C48.478687,8.022689 47.999218,8.020473 47.158958,8.005475 
	C47.178177,4.925882 48.458282,5.905229 49.982098,7.636400 
z"/>
<path fill="#E28A30" opacity="1.000000" stroke="none" 
	d="
M84.903320,38.625893 
	C84.388313,38.722084 83.942368,38.453800 83.258286,37.800877 
	C83.080566,37.028732 83.140984,36.641232 83.451340,36.176186 
	C83.864029,36.035767 84.026764,35.972893 84.386215,35.935730 
	C84.582932,35.961441 84.979591,35.970890 84.979591,35.970890 
	C84.979591,35.970890 85.032997,36.004791 85.059692,36.022049 
	C85.048393,36.780010 85.010391,37.520714 84.903320,38.625893 
z"/>
<path fill="#FDEAAE" opacity="1.000000" stroke="none" 
	d="
M71.368225,21.102539 
	C71.243317,20.172390 71.374344,19.252390 71.801117,18.140408 
	C72.096855,17.948423 72.546318,17.964523 72.654366,18.272266 
	C72.856514,19.319830 72.950615,20.059650 73.044716,20.799469 
	C73.044716,20.799469 72.926956,20.953568 72.702576,21.022303 
	C72.478195,21.091038 72.136055,21.133455 72.136055,21.133455 
	C71.965424,21.126534 71.794800,21.119610 71.368225,21.102539 
z"/>
<path fill="#C77F20" opacity="1.000000" stroke="none" 
	d="
M8.144940,32.230770 
	C8.598798,31.854160 9.014356,31.843121 9.719469,31.949100 
	C9.734823,32.886902 9.460621,33.707680 9.059168,34.835049 
	C8.656824,34.293205 8.381732,33.444775 8.144940,32.230770 
z"/>
<path fill="#E5A94C" opacity="1.000000" stroke="none" 
	d="
M88.514191,31.939144 
	C88.064919,31.201216 87.953011,30.451942 87.981888,29.326073 
	C88.122673,28.949476 88.563942,28.971052 88.855164,29.244410 
	C89.328011,29.748043 89.561981,29.894901 89.848312,29.958338 
	C89.516068,30.614824 89.183815,31.271311 88.514191,31.939144 
z"/>
<path fill="#DD7724" opacity="1.000000" stroke="none" 
	d="
M13.048749,37.680317 
	C12.567233,37.767159 12.085718,37.854000 11.236238,37.923264 
	C10.906974,37.521187 10.945673,37.136688 10.980419,36.463127 
	C10.976466,36.174065 10.982901,36.037155 11.355574,36.045410 
	C12.164130,36.102600 12.600013,36.151535 13.035862,36.448399 
	C13.035062,37.024391 13.039369,37.352390 13.048749,37.680317 
z"/>
<path fill="#FDEEB5" opacity="1.000000" stroke="none" 
	d="
M73.265373,20.875063 
	C72.950615,20.059650 72.856514,19.319830 72.863174,18.355732 
	C73.308533,18.826067 73.653122,19.520679 73.974022,20.560431 
	C73.950333,20.905569 73.486031,20.950657 73.265373,20.875063 
z"/>
<path fill="#FDF0C2" opacity="1.000000" stroke="none" 
	d="
M8.660810,70.018570 
	C8.731656,70.736519 8.500269,71.588333 8.109300,72.738708 
	C7.772342,73.057312 7.594967,73.077354 7.174345,72.985458 
	C7.406925,71.966499 7.882752,71.059479 8.660810,70.018570 
z"/>
<path fill="#FEF6B9" opacity="1.000000" stroke="none" 
	d="
M28.058187,16.952065 
	C28.037180,16.777485 28.016172,16.602905 27.970972,16.165878 
	C28.401510,15.601736 28.856241,15.300044 29.618923,14.970137 
	C30.204100,15.136479 30.481327,15.331038 30.593714,15.786587 
	C30.244928,16.066793 30.060984,16.086012 29.680542,16.194180 
	C29.242422,16.457298 29.066830,16.682903 28.732435,16.965149 
	C28.507603,16.970350 28.058187,16.952065 28.058187,16.952065 
z"/>
<path fill="#FDFCF3" opacity="1.000000" stroke="none" 
	d="
M79.855469,25.364254 
	C79.773193,24.653366 79.888176,24.171528 80.039299,23.320423 
	C80.435295,22.961430 80.712715,23.117908 80.980125,23.657516 
	C81.048370,24.380472 81.044189,24.866510 81.091499,25.715084 
	C80.779579,25.916182 80.416153,25.754742 79.855469,25.364254 
z"/>
<path fill="#FDFBD3" opacity="1.000000" stroke="none" 
	d="
M46.086227,8.754112 
	C45.704594,8.573389 45.383289,8.140576 45.032967,7.427221 
	C45.332890,7.251951 45.661827,7.357223 46.116173,7.727442 
	C46.209911,8.162267 46.178238,8.332145 46.086227,8.754112 
z"/>
<path fill="#FDEACA" opacity="1.000000" stroke="none" 
	d="
M87.071854,70.116501 
	C87.049026,69.676628 87.026199,69.236755 87.003448,68.466393 
	C87.328331,68.541420 87.653137,68.946945 87.712677,69.688141 
	C87.447411,70.023819 87.071854,70.116501 87.071854,70.116501 
z"/>
<path fill="#FDFFFF" opacity="1.000000" stroke="none" 
	d="
M40.203224,10.800865 
	C40.036957,10.914642 40.077366,10.558509 40.097908,10.380446 
	C40.118446,10.202384 40.477455,10.081567 40.663811,10.066442 
	C40.726578,10.290948 40.566353,10.502872 40.203224,10.800865 
z"/>
<path fill="#F8D98F" opacity="1.000000" stroke="none" 
	d="
M87.074066,70.324326 
	C87.071854,70.116501 87.447411,70.023819 87.639481,70.000954 
	C87.831543,69.978088 87.988762,70.451172 88.012360,70.698853 
	C88.035965,70.946526 87.571663,70.980339 87.340683,70.963394 
	C87.109711,70.946449 87.076279,70.532143 87.074066,70.324326 
z"/>
<path fill="#F3D8AE" opacity="1.000000" stroke="none" 
	d="
M84.864265,66.795868 
	C84.535629,66.958656 84.314598,66.792397 84.085281,66.361389 
	C84.327400,66.283691 84.625687,66.407082 84.864265,66.795868 
z"/>
<path fill="#FEDB79" opacity="1.000000" stroke="none" 
	d="
M89.873657,29.692299 
	C89.561981,29.894901 89.328011,29.748043 89.060898,29.324841 
	C89.283279,29.230026 89.591141,29.328142 89.873657,29.692299 
z"/>
<path fill="#E9B221" opacity="1.000000" stroke="none" 
	d="
M56.992096,87.833382 
	C48.593033,87.886642 40.191753,88.053459 31.796915,87.889893 
	C30.261286,87.859970 28.751860,86.485199 27.451405,85.370117 
	C28.451223,85.004799 29.229977,85.000565 30.470448,84.996368 
	C39.954369,84.664581 48.976574,84.332748 57.967056,84.332336 
	C57.620918,85.720291 57.306507,86.776840 56.992096,87.833382 
z"/>
<path fill="#DC9D2A" opacity="1.000000" stroke="none" 
	d="
M74.056389,85.078362 
	C71.964653,85.387840 69.872925,85.697319 67.294418,85.821457 
	C66.536606,85.422157 66.265564,85.208191 66.039352,84.632889 
	C66.395195,82.862816 66.706200,81.454071 67.422653,80.033737 
	C69.883507,79.668030 71.938919,79.313934 74.411179,78.976089 
	C76.887436,79.307693 78.946846,79.623047 81.005325,80.202530 
	C81.001274,80.642700 80.998146,80.818756 80.583298,80.993729 
	C77.763939,81.294838 74.511200,79.908791 74.024895,84.319031 
	C74.029961,84.741173 74.043175,84.909767 74.056389,85.078362 
z"/>
<path fill="#E6AB25" opacity="1.000000" stroke="none" 
	d="
M30.008730,84.996338 
	C29.229977,85.000565 28.451223,85.004799 27.281979,85.023911 
	C25.563627,85.025284 24.235769,85.011765 22.216183,85.010239 
	C21.329641,85.032310 21.134827,85.042397 20.940010,85.052490 
	C20.940010,85.052490 21.001503,85.031479 20.996101,84.792213 
	C20.990391,84.378433 20.990086,84.203918 20.982437,83.656616 
	C19.646215,81.896797 18.317337,80.509766 17.347134,79.071503 
	C18.429949,78.994644 19.154085,78.969025 20.291702,78.961365 
	C21.803703,78.987595 22.902224,78.995865 24.050541,79.323418 
	C25.067156,79.761543 26.033978,79.880386 27.372604,80.012939 
	C28.486650,80.065437 29.228889,80.104233 29.978394,80.547424 
	C29.993351,82.299995 30.001041,83.648170 30.008730,84.996338 
z"/>
<path fill="#E2A71E" opacity="1.000000" stroke="none" 
	d="
M65.994522,84.994232 
	C66.265564,85.208191 66.536606,85.422157 66.929840,85.867828 
	C65.824440,86.730911 64.653854,87.686104 63.355335,87.914787 
	C61.581566,88.227142 59.710403,87.986504 57.436546,87.908150 
	C57.306507,86.776840 57.620918,85.720291 57.967667,84.331879 
	C58.000000,84.000000 58.002136,83.999695 58.409081,84.001808 
	C61.208855,84.334023 63.601688,84.664124 65.994522,84.994232 
z"/>
<path fill="#D28A17" opacity="1.000000" stroke="none" 
	d="
M3.192230,87.442383 
	C2.965664,86.648560 2.964046,86.193268 2.966822,85.380554 
	C2.971217,85.023132 3.011905,84.988022 3.447627,84.999893 
	C5.922703,85.023186 7.962058,85.034615 10.001384,85.394363 
	C10.003225,86.439339 10.005095,87.135986 10.006965,87.832626 
	C7.810369,87.815392 5.613773,87.798157 3.192230,87.442383 
z"/>
<path fill="#D8951A" opacity="1.000000" stroke="none" 
	d="
M10.426796,87.899109 
	C10.005095,87.135986 10.003225,86.439339 10.331717,85.373978 
	C11.102722,84.992447 11.543365,84.979630 12.395490,84.981552 
	C13.906442,85.019958 15.005910,85.043610 16.105379,85.067261 
	C16.338114,89.636154 12.900361,87.545288 10.426796,87.899109 
z"/>
<path fill="#C37810" opacity="1.000000" stroke="none" 
	d="
M85.969360,85.105293 
	C85.901848,85.866898 85.834328,86.628510 85.865585,87.614883 
	C84.580544,87.886047 83.196724,87.932449 81.404968,87.557617 
	C80.998276,86.433907 80.999512,85.731422 81.417175,85.016937 
	C83.225677,84.995247 84.617767,84.985573 86.003342,85.009377 
	C85.996841,85.042854 85.969360,85.105293 85.969360,85.105293 
z"/>
<path fill="#CB8414" opacity="1.000000" stroke="none" 
	d="
M81.000755,85.028938 
	C80.999512,85.731422 80.998276,86.433907 80.994736,87.487610 
	C79.362411,87.565392 76.682297,89.387344 77.177475,85.364044 
	C78.068253,85.002693 78.536972,84.992760 79.337997,84.991684 
	C80.113800,85.010010 80.557274,85.019478 81.000755,85.028938 
z"/>
<path fill="#FF7A00" opacity="1.000000" stroke="none" 
	d="
M16.508057,85.039368 
	C15.005910,85.043610 13.906442,85.019958 12.399081,84.751549 
	C11.991190,84.506798 11.973440,84.045601 12.233582,84.019386 
	C12.667008,83.974358 12.840295,83.955536 13.455671,83.957611 
	C16.261766,83.995483 18.625772,84.012436 20.989779,84.029396 
	C20.990086,84.203918 20.990391,84.378433 20.966034,84.813736 
	C19.597824,85.053513 18.254280,85.032494 16.508057,85.039368 
z"/>
<path fill="#FF5F06" opacity="1.000000" stroke="none" 
	d="
M79.005684,84.982819 
	C78.536972,84.992760 78.068253,85.002693 77.247742,85.039886 
	C76.184921,85.048416 75.473892,85.029694 74.409622,85.044662 
	C74.043175,84.909767 74.029961,84.741173 74.437996,84.298195 
	C76.241333,84.022995 77.623413,84.022186 79.003510,84.261734 
	C79.001534,84.502090 79.005684,84.982819 79.005684,84.982819 
z"/>
<path fill="#DF9F20" opacity="1.000000" stroke="none" 
	d="
M21.015385,85.306717 
	C21.134827,85.042397 21.329641,85.032310 21.816973,85.033875 
	C21.769915,85.217323 21.430338,85.389137 21.015385,85.306717 
z"/>
<path fill="#C0761D" opacity="1.000000" stroke="none" 
	d="
M91.133476,79.779861 
	C91.554482,79.827225 91.975494,79.874573 92.706276,80.404175 
	C93.150307,82.007423 93.284569,83.128418 93.431519,84.283661 
	C93.444206,84.317894 93.432732,84.390022 93.432732,84.390022 
	C93.197525,84.325119 92.962326,84.260223 91.940865,84.097031 
	C89.428925,83.978302 87.703247,83.957863 85.986710,83.549667 
	C85.998962,82.121597 86.002075,81.081276 86.364807,80.005234 
	C87.442368,79.911972 88.160309,79.854439 89.252792,79.849594 
	C90.129387,79.861481 90.631432,79.820671 91.133476,79.779861 
z"/>
<path fill="#F82C09" opacity="1.000000" stroke="none" 
	d="
M85.977570,83.937424 
	C87.703247,83.957863 89.428925,83.978302 91.586899,84.003983 
	C90.273994,84.349876 88.528786,84.690529 86.376465,85.068237 
	C85.969360,85.105293 85.996841,85.042854 85.999222,84.773682 
	C86.001610,84.504509 86.013916,84.030701 86.007858,84.006203 
	C86.001793,83.981705 85.977570,83.937424 85.977570,83.937424 
z"/>
<path fill="#000000" opacity="1.000000" stroke="none" 
	d="
M93.707809,84.355148 
	C93.707809,84.355148 93.661789,84.412712 93.656609,84.447418 
	C93.651428,84.482124 93.474556,84.468613 93.453644,84.429321 
	C93.432732,84.390022 93.444206,84.317894 93.493874,84.336243 
	C93.543541,84.354599 93.707809,84.355148 93.707809,84.355148 
z"/>
<path fill="#F8E5D3" opacity="1.000000" stroke="none" 
	d="
M89.544785,74.047966 
	C90.068367,74.462708 90.599060,74.860603 91.476624,75.297150 
	C91.818108,76.062668 91.812737,76.789536 91.896896,77.756790 
	C91.986420,77.997177 91.561577,78.183708 90.947662,78.152161 
	C89.801208,78.055206 89.268684,77.989799 88.779289,77.521500 
	C89.065697,76.077538 89.308968,75.036469 89.552238,73.995392 
	C89.552238,73.995392 89.551895,74.031120 89.544785,74.047966 
z"/>
<path fill="#CD3D00" opacity="1.000000" stroke="none" 
	d="
M93.781891,83.925186 
	C93.707809,84.355148 93.543541,84.354599 93.481186,84.302010 
	C93.284569,83.128418 93.150307,82.007423 93.018517,80.463272 
	C93.020981,80.040115 93.500320,79.964241 93.739929,80.001678 
	C93.938354,81.191147 93.897163,82.343178 93.781891,83.925186 
z"/>
<path fill="#F7D47E" opacity="1.000000" stroke="none" 
	d="
M88.736153,77.924393 
	C89.268684,77.989799 89.801208,78.055206 90.725319,78.218384 
	C91.116898,78.316170 91.050560,78.651505 90.688492,78.828865 
	C89.874123,79.004463 89.421806,79.002708 88.768784,78.883545 
	C88.310547,78.577080 88.121811,78.334496 88.180344,77.977112 
	C88.358826,77.915833 88.736153,77.924393 88.736153,77.924393 
z"/>
<path fill="#E0A539" opacity="1.000000" stroke="none" 
	d="
M88.969498,79.000946 
	C89.421806,79.002708 89.874123,79.004463 90.665695,78.998260 
	C91.004951,78.990288 91.061478,79.388023 91.097473,79.583939 
	C90.631432,79.820671 90.129387,79.861481 89.280205,79.651955 
	C88.933067,79.401627 88.969498,79.000946 88.969498,79.000946 
z"/>
<path fill="#D78F1C" opacity="1.000000" stroke="none" 
	d="
M13.013580,83.936707 
	C12.840295,83.955536 12.667008,83.974358 11.789200,84.005089 
	C8.395230,84.018173 5.705784,84.019333 2.992471,83.990723 
	C2.968604,83.960960 2.920195,83.901978 2.920196,83.901978 
	C2.950442,82.900940 2.980688,81.899895 3.011532,80.491501 
	C3.012130,80.084152 3.054074,80.019768 3.408573,80.013412 
	C4.843693,79.712006 5.924315,79.416954 7.236902,79.048676 
	C7.468869,78.975449 7.938116,78.848564 8.277130,78.912285 
	C9.072336,79.031891 9.528527,79.087776 10.064129,79.472580 
	C11.100220,81.179893 12.056900,82.558304 13.013580,83.936707 
z"/>
<path fill="#FEECA6" opacity="1.000000" stroke="none" 
	d="
M2.242986,80.078796 
	C2.201294,79.696968 2.424480,79.380653 2.892081,79.239143 
	C3.109022,79.615891 3.081548,79.817825 3.054074,80.019768 
	C3.054074,80.019768 3.012130,80.084152 3.032846,80.116653 
	C2.871663,80.147537 2.689764,80.145920 2.242986,80.078796 
z"/>
<path fill="#D28A17" opacity="1.000000" stroke="none" 
	d="
M2.949844,85.039429 
	C2.641524,84.906235 2.404189,84.699738 2.113720,84.221977 
	C2.010974,84.007729 2.468154,83.971825 2.694175,83.936905 
	C2.920195,83.901978 2.968604,83.960960 2.981472,84.232330 
	C2.994340,84.503693 3.011905,84.988022 3.011905,84.988022 
	C3.011905,84.988022 2.971217,85.023132 2.949844,85.039429 
z"/>
<path fill="#F4C54E" opacity="1.000000" stroke="none" 
	d="
M3.408573,80.013412 
	C3.081548,79.817825 3.109022,79.615891 3.156596,79.106293 
	C3.176696,78.798645 3.204251,78.613243 3.245564,78.533623 
	C4.302021,78.385666 5.317165,78.317329 6.694541,78.110771 
	C7.056771,77.972549 7.019015,78.003357 6.978342,78.270790 
	C6.960092,78.732780 6.982514,78.927345 7.004937,79.121902 
	C5.924315,79.416954 4.843693,79.712006 3.408573,80.013412 
z"/>
<path fill="#FEE281" opacity="1.000000" stroke="none" 
	d="
M48.995724,15.994088 
	C50.133846,16.572941 51.271969,17.151793 53.009377,17.996868 
	C55.404453,19.173512 57.200245,20.083931 59.345589,20.999294 
	C60.792931,21.332394 61.890724,21.660545 62.988514,21.988699 
	C62.845081,23.757727 62.701649,25.526754 62.609402,26.664499 
	C64.246330,27.972439 65.604591,29.057716 66.521683,30.550785 
	C63.048809,30.934258 60.017117,30.909941 56.968071,30.486866 
	C55.728313,29.392651 54.557613,28.241821 53.272812,28.095953 
	C50.546810,27.786459 47.761372,28.000425 44.999969,27.555479 
	C44.999638,24.687870 44.999638,22.264553 44.999638,19.581394 
	C46.786224,19.581394 48.138138,19.581394 49.678421,19.581394 
	C49.414196,18.193003 49.204960,17.093546 48.995724,15.994088 
z"/>
<path fill="#F5B249" opacity="1.000000" stroke="none" 
	d="
M56.985420,30.885624 
	C60.017117,30.909941 63.048809,30.934258 66.533127,30.927517 
	C67.255920,31.117426 67.526093,31.338392 67.664497,32.108910 
	C65.691376,32.726719 63.850021,32.794975 61.730053,32.574371 
	C58.265781,32.487736 55.080132,32.689957 51.447830,32.927887 
	C47.996674,32.940845 44.992165,32.918102 41.723587,32.603706 
	C38.637188,32.495548 35.814857,32.679043 32.543072,32.908680 
	C28.699375,33.263008 25.305130,33.571194 21.484356,33.921814 
	C19.057844,34.024651 17.057859,34.085052 14.734909,34.111240 
	C14.196023,34.060959 13.980104,34.044891 13.756765,33.816036 
	C13.625725,33.315113 13.408092,33.153896 13.076596,33.076027 
	C13.056749,33.032455 12.978919,32.976665 12.976843,32.653912 
	C12.972535,32.115997 12.970304,31.900835 13.318030,31.464211 
	C28.107132,31.123705 42.546276,31.004665 56.985420,30.885624 
z"/>
<path fill="#C8320D" opacity="1.000000" stroke="none" 
	d="
M62.008671,32.863228 
	C63.850021,32.794975 65.691376,32.726719 67.771118,32.349823 
	C69.390305,32.040047 70.771088,32.038918 72.573730,32.477573 
	C72.977310,33.940807 72.959038,34.964256 72.578140,35.997414 
	C69.143837,38.008591 66.072151,40.010056 62.679935,42.007080 
	C61.724083,41.973843 61.088753,41.945045 60.415092,41.649315 
	C60.321991,41.211147 60.267223,41.039913 60.225033,40.482147 
	C60.212017,39.058853 60.186428,38.022091 60.457550,36.814270 
	C61.172398,35.383217 61.590534,34.123222 62.008671,32.863228 
z"/>
<path fill="#FEE48C" opacity="1.000000" stroke="none" 
	d="
M63.243214,21.986053 
	C61.890724,21.660545 60.792931,21.332394 59.356899,20.630650 
	C60.017174,19.502563 61.015690,18.748068 62.014206,17.993572 
	C62.914867,17.888344 63.815525,17.783113 64.966743,17.439854 
	C65.890549,17.140219 66.563789,17.078617 67.574409,17.065392 
	C68.505920,18.204844 69.100060,19.295923 69.682663,20.704021 
	C67.956879,21.165007 66.242630,21.308973 64.267853,21.717495 
	C63.837528,21.982506 63.667721,21.982956 63.243214,21.986053 
z"/>
<path fill="#D05014" opacity="1.000000" stroke="none" 
	d="
M72.940765,35.987701 
	C72.959038,34.964256 72.977310,33.940807 72.984253,32.534813 
	C76.329681,32.123314 79.686424,32.094364 83.518143,32.474106 
	C83.978630,33.355465 83.964149,33.828140 83.627380,34.201324 
	C82.860764,34.049526 82.416443,33.997211 81.688072,33.851288 
	C79.921356,34.161873 78.438675,34.566067 76.621834,34.975777 
	C75.515221,35.324512 74.742767,35.667728 73.712860,36.008324 
	C73.283852,35.999706 73.112312,35.993702 72.940765,35.987701 
z"/>
<path fill="#C86F24" opacity="1.000000" stroke="none" 
	d="
M83.949669,34.300812 
	C83.964149,33.828140 83.978630,33.355465 83.968552,32.529373 
	C84.255486,32.255062 84.566963,32.334171 85.008698,32.633858 
	C85.101616,33.634117 85.064270,34.413799 85.003258,35.582188 
	C84.979591,35.970890 84.582932,35.961441 84.345779,35.665764 
	C84.055649,35.013660 84.002655,34.657238 83.949669,34.300812 
z"/>
<path fill="#FEE587" opacity="1.000000" stroke="none" 
	d="
M48.665905,15.967112 
	C49.204960,17.093546 49.414196,18.193003 49.678421,19.581394 
	C48.138138,19.581394 46.786224,19.581394 44.999638,19.581394 
	C44.999638,22.264553 44.999638,24.687870 44.539276,27.555576 
	C40.385487,27.999746 36.692059,27.999529 32.967445,27.668140 
	C32.598545,26.515583 32.260826,25.694201 32.146301,24.614067 
	C35.564949,22.602173 38.760410,20.849031 41.955868,19.095890 
	C44.082607,18.043972 46.209347,16.992054 48.665905,15.967112 
z"/>
<path fill="#FEEA92" opacity="1.000000" stroke="none" 
	d="
M26.764389,20.487356 
	C27.530008,20.024357 28.091263,19.792015 29.115225,19.341640 
	C29.755680,19.111952 29.933426,19.100298 30.455788,19.070322 
	C31.251503,18.955883 31.702600,18.859766 32.289948,18.765972 
	C32.426201,18.768293 32.695808,18.808199 32.695808,18.808199 
	C33.102772,19.331747 33.509735,19.855293 33.772327,21.003115 
	C29.767384,23.448257 25.906813,25.269123 21.990662,26.766750 
	C21.299170,25.966494 20.663258,25.489477 20.034500,24.787003 
	C20.041655,24.561544 20.068712,24.111216 20.068712,24.111216 
	C20.193674,23.846607 20.353626,23.605186 21.030186,23.220646 
	C22.020702,22.714539 22.529604,22.374735 23.038507,22.034933 
	C24.212345,21.595959 25.386185,21.156986 26.764389,20.487356 
z"/>
<path fill="#FEE794" opacity="1.000000" stroke="none" 
	d="
M62.051155,17.599277 
	C61.015690,18.748068 60.017174,19.502563 59.007347,20.625704 
	C57.200245,20.083931 55.404453,19.173512 53.302971,18.122005 
	C53.442219,16.407234 53.887161,14.833553 54.067665,13.066032 
	C54.303135,12.290638 54.803036,11.709084 55.617691,11.094946 
	C55.932446,11.062363 55.875011,11.505995 55.948875,12.023396 
	C56.347237,13.020749 56.671738,13.500702 56.996239,13.980654 
	C58.369995,13.987960 59.743752,13.995266 61.528854,14.029689 
	C61.989502,15.106198 62.038803,16.155590 62.051155,17.599277 
z"/>
<path fill="#EA993D" opacity="1.000000" stroke="none" 
	d="
M22.046242,27.089989 
	C25.906813,25.269123 29.767384,23.448257 33.820633,21.344299 
	C36.404026,20.383953 38.794743,19.706697 41.570663,19.062666 
	C38.760410,20.849031 35.564949,22.602173 31.825275,24.677324 
	C30.168335,25.629374 29.055609,26.259415 27.584543,26.955708 
	C25.499552,27.044632 23.772896,27.067310 22.046242,27.089989 
z"/>
<path fill="#FDFFFF" opacity="1.000000" stroke="none" 
	d="
M37.345039,15.169450 
	C37.778091,14.527786 38.524185,13.796713 39.578804,13.127347 
	C39.887337,13.189055 39.981819,13.621978 40.013706,13.841841 
	C39.249756,14.401149 38.453918,14.740594 37.345039,15.169450 
z"/>
<path fill="#FDFCD4" opacity="1.000000" stroke="none" 
	d="
M33.260307,17.014385 
	C33.091850,16.834990 33.209408,16.573740 33.565243,16.212662 
	C33.892490,16.429979 33.806759,16.703213 33.260307,17.014385 
z"/>
<path fill="#FDFBD3" opacity="1.000000" stroke="none" 
	d="
M46.131470,10.589521 
	C45.991879,10.524262 45.991745,10.480826 46.002563,10.461535 
	C46.013378,10.442242 46.416458,10.423079 46.416458,10.423079 
	C46.416458,10.423079 46.271057,10.654780 46.131470,10.589521 
z"/>
<path fill="#FDFBD3" opacity="1.000000" stroke="none" 
	d="
M49.075058,10.217287 
	C49.294453,10.099240 49.554001,10.288782 49.879166,10.764681 
	C49.723381,10.800187 49.446861,10.624799 49.075058,10.217287 
z"/>
<path fill="#FDFCF3" opacity="1.000000" stroke="none" 
	d="
M32.725540,18.629776 
	C32.695808,18.808199 32.426201,18.768293 32.256611,18.579939 
	C32.087021,18.391584 32.040318,18.011856 32.040318,18.011856 
	C32.040318,18.011856 32.380787,18.050209 32.548046,18.071005 
	C32.715305,18.091801 32.755276,18.451353 32.725540,18.629776 
z"/>
<path fill="#E26F1E" opacity="1.000000" stroke="none" 
	d="
M21.919424,64.015648 
	C21.855534,63.249409 21.791643,62.483170 21.745274,60.935936 
	C21.669014,58.760761 21.575233,57.366589 21.606800,55.607788 
	C21.748381,54.224258 21.764614,53.205349 21.858183,51.787994 
	C21.984650,50.587296 22.033779,49.785046 22.430626,49.031036 
	C24.890068,50.789688 26.940193,52.584805 29.134983,54.180996 
	C30.620567,55.261402 32.309635,56.062016 33.950539,57.360302 
	C34.006115,58.480736 34.018837,59.228642 33.656357,59.977364 
	C29.046244,58.037262 25.442297,57.860371 23.637548,63.242470 
	C23.501972,63.646778 22.512146,63.764633 21.919424,64.015648 
z"/>
<path fill="#E7791D" opacity="1.000000" stroke="none" 
	d="
M21.899082,64.398872 
	C22.512146,63.764633 23.501972,63.646778 23.637548,63.242470 
	C25.442297,57.860371 29.046244,58.037262 33.641224,59.973839 
	C34.001297,59.969490 34.017460,59.945305 34.108406,60.158318 
	C34.367012,60.643646 34.599854,60.837742 34.940590,61.330505 
	C34.955784,62.463974 34.928272,63.220554 34.536575,63.934227 
	C27.208572,60.939182 26.868320,61.017944 25.011909,66.429428 
	C24.990667,68.517563 24.971497,70.187599 24.621452,71.911110 
	C23.846008,72.012245 23.401442,72.059906 22.955688,72.097534 
	C22.954502,72.087494 22.932426,72.091484 22.922764,71.733276 
	C22.853193,70.901314 22.793287,70.427567 22.733381,69.953812 
	C22.448502,68.229904 22.163620,66.506004 21.899082,64.398872 
z"/>
<path fill="#FDCB4C" opacity="1.000000" stroke="none" 
	d="
M21.481453,55.972412 
	C21.575233,57.366589 21.669014,58.760761 21.645638,60.564651 
	C19.607452,61.314854 17.686424,61.655346 15.378158,61.993942 
	C14.996001,60.606628 15.001084,59.221214 15.391872,57.417686 
	C17.678869,56.657188 19.580162,56.314800 21.481453,55.972412 
z"/>
<path fill="#FCC433" opacity="1.000000" stroke="none" 
	d="
M22.340351,69.966049 
	C22.793287,70.427567 22.853193,70.901314 22.472488,71.740448 
	C19.268282,72.135178 16.504683,72.164536 13.741085,72.193886 
	C13.291066,71.547867 12.841046,70.901840 12.248755,69.993774 
	C12.814454,69.506004 13.522423,69.280273 14.816852,69.030182 
	C15.597974,68.993805 15.792636,68.981789 15.987299,68.969780 
	C17.973972,69.305946 19.960648,69.642113 22.340351,69.966049 
z"/>
<path fill="#FEE794" opacity="1.000000" stroke="none" 
	d="
M15.878479,68.786171 
	C15.792636,68.981789 15.597974,68.993805 15.109673,69.029572 
	C15.133909,68.903069 15.451785,68.752815 15.878479,68.786171 
z"/>
<path fill="#FDEEB5" opacity="1.000000" stroke="none" 
	d="
M72.160629,21.315971 
	C72.136055,21.133455 72.478195,21.091038 72.648743,21.102962 
	C72.607933,21.242754 72.396568,21.370623 72.160629,21.315971 
z"/>
<path fill="#D09C44" opacity="1.000000" stroke="none" 
	d="
M83.201393,36.253727 
	C83.140984,36.641232 83.080566,37.028732 83.013741,37.710815 
	C83.006592,47.087654 83.005852,56.169910 83.003807,65.741089 
	C82.539948,66.541321 82.077393,66.852631 81.156029,66.849815 
	C80.456741,64.027206 80.216270,61.518719 80.267868,58.709267 
	C80.690292,51.352917 80.820648,44.297531 80.981232,36.933945 
	C81.025185,36.419739 81.038902,36.213737 81.293579,36.012108 
	C81.534546,36.016476 82.016525,36.010559 82.316505,36.053024 
	C82.811447,36.148239 83.006416,36.200981 83.201393,36.253727 
z"/>
<path fill="#FDD15E" opacity="1.000000" stroke="none" 
	d="
M14.999012,44.445740 
	C15.586370,42.850243 16.175180,41.698807 17.229948,40.299316 
	C18.472731,41.033878 19.249552,42.016495 20.011303,43.448616 
	C20.019209,46.591736 20.042183,49.285351 19.643435,51.984947 
	C17.816513,51.994469 16.411312,51.998001 15.006111,52.001534 
	C15.004229,49.630955 15.002345,47.260376 14.999012,44.445740 
z"/>
<path fill="#FDD056" opacity="1.000000" stroke="none" 
	d="
M15.003088,52.251244 
	C16.411312,51.998001 17.816513,51.994469 19.931431,52.002960 
	C21.021048,52.072136 21.400948,52.129288 21.780848,52.186440 
	C21.764614,53.205349 21.748381,54.224258 21.606800,55.607792 
	C19.580162,56.314800 17.678869,56.657188 15.394102,57.001862 
	C15.006692,55.936417 15.002757,54.868687 14.996699,53.400665 
	C14.994577,53.000374 15.000065,52.500950 15.003088,52.251244 
z"/>
<path fill="#FEE688" opacity="1.000000" stroke="none" 
	d="
M21.990662,26.766750 
	C23.772896,27.067310 25.499552,27.044632 27.836708,27.245447 
	C29.964350,27.645731 31.481489,27.822523 32.998627,27.999313 
	C36.692059,27.999529 40.385487,27.999746 44.539612,27.999866 
	C47.761372,28.000425 50.546810,27.786459 53.272812,28.095953 
	C54.557613,28.241821 55.728313,29.392651 56.968071,30.486866 
	C42.546276,31.004665 28.107132,31.123705 12.959682,31.504166 
	C11.864733,32.014374 11.478089,32.263161 11.091446,32.511951 
	C11.091446,32.511951 11.138025,32.186111 11.121256,32.020279 
	C11.061660,31.430403 11.018834,31.006363 10.979954,30.259586 
	C11.176240,29.412878 11.368583,28.888903 12.103596,28.173370 
	C13.387004,27.402378 14.127741,26.822943 14.868479,26.243507 
	C15.740307,25.959057 16.612135,25.674606 18.117653,25.229080 
	C19.176676,25.049488 19.602009,25.030973 20.027344,25.012459 
	C20.663258,25.489477 21.299170,25.966494 21.990662,26.766750 
z"/>
<path fill="#FEF6B9" opacity="1.000000" stroke="none" 
	d="
M14.864757,25.900810 
	C14.127741,26.822943 13.387004,27.402378 12.354860,28.025707 
	C12.447014,26.927332 12.830576,25.785059 13.214138,24.642788 
	C13.763104,24.947895 14.312070,25.253002 14.864757,25.900810 
z"/>
<path fill="#FEF6B9" opacity="1.000000" stroke="none" 
	d="
M20.034500,24.787003 
	C19.602009,25.030973 19.176676,25.049488 18.434898,25.089819 
	C18.223240,24.257492 18.328028,23.403353 18.689289,22.360332 
	C19.156902,22.703848 19.368042,23.236242 19.823948,23.939926 
	C20.068712,24.111216 20.041655,24.561544 20.034500,24.787003 
z"/>
<path fill="#FEDF7B" opacity="1.000000" stroke="none" 
	d="
M13.614462,72.395599 
	C16.504683,72.164536 19.268282,72.135178 22.482153,72.098656 
	C22.932426,72.091484 22.954502,72.087494 23.183681,72.333191 
	C24.269886,72.727203 25.126911,72.875519 25.989323,73.289543 
	C25.996416,73.732422 25.998125,73.909592 25.635744,74.053360 
	C23.873081,74.239723 22.474506,74.459480 20.688528,74.672028 
	C18.526560,74.516090 16.751999,74.367363 14.977436,74.218643 
	C14.407996,74.053505 13.838556,73.888359 13.056557,73.517822 
	C13.036152,73.053818 13.250766,72.815445 13.614462,72.395599 
z"/>
<path fill="#EFA721" opacity="1.000000" stroke="none" 
	d="
M14.983944,74.584976 
	C16.751999,74.367363 18.526560,74.516090 20.641449,75.040939 
	C20.636988,76.313217 20.292202,77.209366 19.536873,78.063980 
	C17.747431,77.983353 16.368534,77.944275 14.989637,77.905190 
	C14.989909,76.920563 14.990181,75.935944 14.983944,74.584976 
z"/>
<path fill="#FEE273" opacity="1.000000" stroke="none" 
	d="
M14.552626,77.940849 
	C16.368534,77.944275 17.747431,77.983353 19.530302,78.274017 
	C19.934277,78.525589 19.878223,78.943405 19.878223,78.943405 
	C19.154085,78.969025 18.429949,78.994644 16.910858,79.030106 
	C14.072177,79.074516 12.028447,79.109093 9.984718,79.143661 
	C9.528527,79.087776 9.072336,79.031891 8.291555,78.725616 
	C7.966967,78.475220 7.952136,78.097717 7.952136,78.097717 
	C10.006629,78.057312 12.061121,78.016914 14.552626,77.940849 
z"/>
<path fill="#FCD66C" opacity="1.000000" stroke="none" 
	d="
M8.134190,73.507935 
	C8.726231,73.221138 9.540193,73.133377 10.746141,73.190323 
	C10.210790,73.459015 9.283450,73.582993 8.134190,73.507935 
z"/>
<path fill="#FEECA6" opacity="1.000000" stroke="none" 
	d="
M7.723180,78.040543 
	C7.952136,78.097717 7.966967,78.475220 7.952541,78.661896 
	C7.938116,78.848564 7.468869,78.975449 7.236903,79.048676 
	C6.982514,78.927345 6.960092,78.732780 6.980331,78.247574 
	C7.022993,77.956932 7.494224,77.983376 7.723180,78.040543 
z"/>
<path fill="#EA9935" opacity="1.000000" stroke="none" 
	d="
M20.026373,42.999111 
	C19.249552,42.016495 18.472731,41.033878 17.357109,40.002056 
	C16.498270,39.347244 15.978229,38.741634 15.216263,37.778557 
	C14.974340,37.421089 14.992364,37.027317 15.409016,37.038391 
	C17.490501,37.072090 19.155336,37.094707 20.866854,37.337986 
	C20.913536,37.558643 21.018167,37.997425 20.996645,38.329029 
	C21.008160,39.101921 21.041197,39.543205 21.051563,40.360744 
	C21.015877,41.490685 21.002859,42.244370 20.748976,42.998882 
	C20.508108,42.999706 20.026373,42.999111 20.026373,42.999111 
z"/>
<path fill="#DB671F" opacity="1.000000" stroke="none" 
	d="
M20.820171,37.117329 
	C19.155336,37.094707 17.490501,37.072090 15.240814,37.079575 
	C14.438815,37.194134 14.259320,37.328743 14.117476,37.513500 
	C13.941996,37.559067 13.766515,37.604637 13.319891,37.665260 
	C13.039369,37.352390 13.035062,37.024391 13.101606,36.073952 
	C13.249432,34.956108 13.331478,34.460640 13.501926,33.977028 
	C13.590327,33.988888 13.764187,34.028824 13.764187,34.028824 
	C13.980104,34.044891 14.196023,34.060959 14.844385,34.298115 
	C15.471693,34.746315 15.711246,34.906731 16.255219,35.271812 
	C18.026508,35.704193 19.538071,35.865215 21.009352,36.302605 
	C20.919439,36.758423 20.869806,36.937874 20.820171,37.117329 
z"/>
<path fill="#DD7724" opacity="1.000000" stroke="none" 
	d="
M14.310141,37.626183 
	C14.259320,37.328743 14.438815,37.194134 14.824163,37.068497 
	C14.992364,37.027317 14.974340,37.421089 14.958879,37.615799 
	C14.943417,37.810509 14.502805,37.738869 14.310141,37.626183 
z"/>
<path fill="#F9C23F" opacity="1.000000" stroke="none" 
	d="
M79.975792,59.010235 
	C80.216270,61.518719 80.456741,64.027206 80.877754,66.913963 
	C81.579391,67.699677 82.100487,68.107124 82.478371,68.761871 
	C81.912605,69.053062 81.490044,69.096954 80.815742,69.101151 
	C80.395157,69.047592 80.226318,69.033737 79.772705,68.737442 
	C77.835709,68.338020 76.183487,68.221039 74.329605,67.748886 
	C74.038994,64.259216 73.950027,61.124722 73.912109,57.657558 
	C74.013107,56.879242 74.063057,56.433598 74.445877,56.064968 
	C76.187820,57.093483 77.596893,58.044983 79.248428,58.999321 
	C79.490891,59.002163 79.975792,59.010235 79.975792,59.010235 
z"/>
<path fill="#F5C759" opacity="1.000000" stroke="none" 
	d="
M82.204109,72.164886 
	C82.345337,72.365738 82.515266,72.538322 82.854721,73.064758 
	C82.994141,73.626205 82.992737,73.805527 83.028885,74.039856 
	C83.066429,74.094849 83.135269,74.208855 82.729507,74.148376 
	C81.250458,74.138733 80.177162,74.189575 78.699379,74.186661 
	C77.210907,74.165611 76.126930,74.198311 74.641129,74.178040 
	C73.158653,74.091629 72.077995,74.058174 70.998238,73.773865 
	C70.999779,73.355759 71.000420,73.188522 71.293159,72.993790 
	C72.060333,72.666634 72.535416,72.366982 73.455017,72.060760 
	C76.278854,72.002968 78.658173,71.951744 81.333023,71.949493 
	C81.820412,72.053932 82.012260,72.109413 82.204109,72.164886 
z"/>
<path fill="#E89C28" opacity="1.000000" stroke="none" 
	d="
M82.428864,71.953964 
	C82.012260,72.109413 81.820412,72.053932 81.318314,71.604889 
	C81.027870,70.521172 81.047684,69.831009 81.067490,69.140846 
	C81.490044,69.096954 81.912605,69.053062 82.646500,68.953789 
	C82.856430,69.846619 82.755020,70.794838 82.428864,71.953964 
z"/>
<path fill="#E9B44C" opacity="1.000000" stroke="none" 
	d="
M82.991333,73.984856 
	C82.992737,73.805527 82.994141,73.626205 82.998581,73.177284 
	C84.082909,72.759506 85.164185,72.611328 86.568390,72.454773 
	C86.943306,72.715858 87.037064,72.969940 86.802658,73.551788 
	C85.285606,73.924919 84.138466,73.954887 82.991333,73.984856 
z"/>
<path fill="#FDFFFC" opacity="1.000000" stroke="none" 
	d="
M22.911934,21.772200 
	C22.529604,22.374735 22.020702,22.714539 21.193657,23.076866 
	C20.934900,22.065994 20.994286,21.032595 21.116646,19.621414 
	C21.714869,19.998913 22.250113,20.754189 22.911934,21.772200 
z"/>
<path fill="#FEF9C3" opacity="1.000000" stroke="none" 
	d="
M31.784374,17.847595 
	C32.040318,18.011856 32.087021,18.391584 32.120361,18.577618 
	C31.702600,18.859766 31.251503,18.955883 30.428894,18.694605 
	C29.997271,17.593218 29.937155,16.849222 29.877039,16.105228 
	C30.060984,16.086012 30.244928,16.066793 30.704617,16.019020 
	C31.163048,16.554754 31.345739,17.119045 31.784374,17.847595 
z"/>
<path fill="#FEF5C9" opacity="1.000000" stroke="none" 
	d="
M56.966789,13.679581 
	C56.671738,13.500702 56.347237,13.020749 55.976418,12.245361 
	C56.265850,12.426119 56.601597,12.902313 56.966789,13.679581 
z"/>
<path fill="#D1781D" opacity="1.000000" stroke="none" 
	d="
M83.028885,74.039856 
	C84.138466,73.954887 85.285606,73.924919 86.845535,73.753929 
	C87.771248,73.678810 88.284180,73.744713 89.174667,73.903000 
	C89.308968,75.036469 89.065697,76.077538 88.779289,77.521500 
	C88.736153,77.924393 88.358826,77.915833 88.188370,77.887161 
	C88.017921,77.858482 87.962196,77.686966 87.780312,77.530479 
	C87.307800,77.200386 86.994911,77.138115 86.283180,77.216949 
	C84.900116,77.225273 83.893631,77.203819 82.998566,76.928917 
	C83.118408,75.853256 83.126839,75.031059 83.135269,74.208855 
	C83.135269,74.208855 83.066429,74.094849 83.028885,74.039856 
z"/>
<path fill="#DD963C" opacity="1.000000" stroke="none" 
	d="
M13.413525,33.965168 
	C13.331478,34.460640 13.249432,34.956108 13.101641,35.826027 
	C12.600013,36.151535 12.164130,36.102600 11.405033,35.997971 
	C11.144658,35.434845 11.207496,34.927410 11.512962,33.970631 
	C12.163366,33.339745 12.571142,33.158203 12.978918,32.976665 
	C12.978919,32.976665 13.056749,33.032455 13.134444,33.294510 
	C13.212139,33.556564 13.413525,33.965168 13.413525,33.965168 
z"/>
<path fill="#C86F24" opacity="1.000000" stroke="none" 
	d="
M12.976843,32.653912 
	C12.571142,33.158203 12.163366,33.339745 11.546164,33.588516 
	C11.201026,33.418739 11.139770,33.163910 11.122207,32.701607 
	C11.478089,32.263161 11.864733,32.014374 12.609725,31.725630 
	C12.970304,31.900835 12.972535,32.115997 12.976843,32.653912 
z"/>
<path fill="#FDFCF3" opacity="1.000000" stroke="none" 
	d="
M29.680542,16.194180 
	C29.937155,16.849222 29.997271,17.593218 30.084278,18.712929 
	C29.933426,19.100298 29.755680,19.111952 29.311584,19.110010 
	C29.033518,18.917385 29.021799,18.738354 28.997200,18.024700 
	C28.975302,17.313370 28.966284,17.136658 28.957268,16.959946 
	C29.066830,16.682903 29.242422,16.457298 29.680542,16.194180 
z"/>
<path fill="#FEFDD7" opacity="1.000000" stroke="none" 
	d="
M28.732435,16.965149 
	C28.966284,17.136658 28.975302,17.313370 28.993229,17.755608 
	C28.670052,17.916712 28.412838,17.716234 28.144342,17.185883 
	C28.058187,16.952065 28.507603,16.970350 28.732435,16.965149 
z"/>
<path fill="#D38F3F" opacity="1.000000" stroke="none" 
	d="
M83.451340,36.176186 
	C83.006416,36.200981 82.811447,36.148239 82.308556,35.708946 
	C81.991119,34.863232 81.981613,34.404064 81.972107,33.944893 
	C82.416443,33.997211 82.860764,34.049526 83.627380,34.201324 
	C84.002655,34.657238 84.055649,35.013660 84.149071,35.640053 
	C84.026764,35.972893 83.864029,36.035767 83.451340,36.176186 
z"/>
<path fill="#EBB72C" opacity="1.000000" stroke="none" 
	d="
M30.470448,84.996368 
	C30.001041,83.648170 29.993351,82.299995 30.448496,80.503082 
	C39.941048,80.034386 48.970764,80.014435 58.001251,80.029243 
	C58.002022,80.063995 58.019409,80.131294 58.014633,80.514328 
	C58.007282,81.931465 58.004711,82.965584 58.002136,83.999695 
	C58.002136,83.999695 58.000000,84.000000 57.999390,84.000458 
	C48.976574,84.332748 39.954369,84.664581 30.470448,84.996368 
z"/>
<path fill="#FCCD3A" opacity="1.000000" stroke="none" 
	d="
M73.994324,78.959831 
	C71.938919,79.313934 69.883507,79.668030 67.004593,80.014694 
	C64.788567,80.007347 63.396046,80.007431 61.744713,80.007919 
	C61.313473,80.014481 61.141041,80.020622 60.599384,80.030113 
	C59.493240,80.066078 58.756325,80.098686 58.019409,80.131294 
	C58.019409,80.131294 58.002022,80.063995 57.707626,79.748322 
	C54.274956,79.273308 51.136677,79.113953 48.283142,78.688171 
	C51.055267,77.608002 53.542645,76.794273 56.481129,75.986191 
	C60.293800,75.657310 63.655369,75.322784 67.349815,74.991287 
	C68.127213,74.994583 68.571724,74.994843 69.027527,75.385361 
	C70.696091,76.539322 72.353386,77.303047 74.006729,78.290039 
	C74.002769,78.513306 73.994324,78.959831 73.994324,78.959831 
z"/>
<path fill="#E4AB2A" opacity="1.000000" stroke="none" 
	d="
M62.003521,80.007515 
	C63.396046,80.007431 64.788567,80.007347 66.599152,80.026299 
	C66.706200,81.454071 66.395195,82.862816 66.039352,84.632889 
	C63.601688,84.664124 61.208855,84.334023 58.409081,84.001808 
	C58.004711,82.965584 58.007282,81.931465 58.014633,80.514328 
	C58.756325,80.098686 59.493240,80.066078 60.700729,80.183418 
	C61.448708,80.224747 61.726112,80.116127 62.003521,80.007515 
z"/>
<path fill="#F9CB4E" opacity="1.000000" stroke="none" 
	d="
M74.411179,78.976089 
	C73.994324,78.959831 74.002769,78.513306 74.260941,78.250870 
	C74.688683,77.962906 74.858253,77.937393 75.378326,77.937134 
	C76.844032,77.751015 77.959244,77.539642 79.455093,77.280273 
	C80.852882,77.215645 81.870018,77.199005 82.887154,77.182373 
	C83.893631,77.203819 84.900116,77.225273 86.459045,77.399178 
	C87.011490,77.551628 87.467636,77.755035 87.467636,77.755035 
	C87.467636,77.755035 87.962196,77.686966 87.962196,77.686966 
	C87.962196,77.686966 88.017921,77.858482 88.009888,77.948441 
	C88.121811,78.334496 88.310547,78.577080 88.768784,78.883545 
	C88.969498,79.000946 88.933067,79.401627 88.905655,79.599274 
	C88.160309,79.854439 87.442368,79.911972 85.948349,79.975922 
	C83.783592,79.967705 82.394920,79.953056 81.006248,79.938400 
	C78.946846,79.623047 76.887436,79.307693 74.411179,78.976089 
z"/>
<path fill="#C77F20" opacity="1.000000" stroke="none" 
	d="
M81.005325,80.202530 
	C82.394920,79.953056 83.783592,79.967705 85.588730,80.011658 
	C86.002075,81.081276 85.998962,82.121597 85.986710,83.549667 
	C85.977570,83.937424 86.001793,83.981705 85.588501,83.991333 
	C83.783112,83.992088 82.391014,83.983223 80.999161,83.601982 
	C80.997932,82.484673 80.996475,81.739738 80.995010,80.994812 
	C80.998146,80.818756 81.001274,80.642700 81.005325,80.202530 
z"/>
<path fill="#D18D25" opacity="1.000000" stroke="none" 
	d="
M80.583298,80.993729 
	C80.996475,81.739738 80.997932,82.484673 80.666718,83.613968 
	C79.891190,84.006004 79.448341,84.013687 79.005493,84.021370 
	C77.623413,84.022186 76.241333,84.022995 74.446152,84.044647 
	C74.511200,79.908791 77.763939,81.294838 80.583298,80.993729 
z"/>
<path fill="#F4B326" opacity="1.000000" stroke="none" 
	d="
M20.291702,78.961365 
	C19.878223,78.943405 19.934277,78.525589 19.940847,78.315552 
	C20.292202,77.209366 20.636988,76.313217 21.028854,75.048149 
	C22.474506,74.459480 23.873081,74.239723 25.885542,74.325592 
	C27.992962,74.780716 29.486496,74.930214 30.987101,75.464264 
	C30.990034,76.877449 30.985899,77.906082 30.587715,78.950638 
	C29.142120,78.983978 28.090576,79.001396 26.658888,79.012619 
	C25.519411,79.005653 24.760078,79.004890 24.000744,79.004135 
	C22.902224,78.995865 21.803703,78.987595 20.291702,78.961365 
z"/>
<path fill="#DF9F20" opacity="1.000000" stroke="none" 
	d="
M10.064129,79.472580 
	C12.028447,79.109093 14.072177,79.074516 16.552181,79.081345 
	C18.317337,80.509766 19.646215,81.896797 20.982437,83.656616 
	C18.625772,84.012436 16.261766,83.995483 13.455670,83.957611 
	C12.056900,82.558304 11.100220,81.179893 10.064129,79.472580 
z"/>
<path fill="#FCD85E" opacity="1.000000" stroke="none" 
	d="
M27.039030,79.018814 
	C28.090576,79.001396 29.142120,78.983978 31.056726,78.976860 
	C37.279324,78.976311 42.638863,78.965454 47.998398,78.954605 
	C51.136677,79.113953 54.274956,79.273308 57.706856,79.713577 
	C48.970764,80.014435 39.941048,80.034386 30.441231,80.098679 
	C29.228889,80.104233 28.486650,80.065437 27.377300,79.767639 
	C27.010187,79.508644 27.039030,79.018814 27.039030,79.018814 
z"/>
<path fill="#EBB72C" opacity="1.000000" stroke="none" 
	d="
M26.658888,79.012619 
	C27.039030,79.018814 27.010187,79.508644 27.005493,79.753937 
	C26.033978,79.880386 25.067156,79.761543 24.050541,79.323410 
	C24.760078,79.004890 25.519411,79.005653 26.658888,79.012619 
z"/>
<path fill="#FE5600" opacity="1.000000" stroke="none" 
	d="
M3.447627,84.999893 
	C3.011905,84.988022 2.994340,84.503693 3.005340,84.262093 
	C5.705784,84.019333 8.395230,84.018173 11.529058,84.031303 
	C11.973440,84.045601 11.991190,84.506798 11.987598,84.736801 
	C11.543365,84.979630 11.102722,84.992447 10.331746,85.025650 
	C7.962058,85.034615 5.922703,85.023186 3.447627,84.999893 
z"/>
<path fill="#FD4814" opacity="1.000000" stroke="none" 
	d="
M79.003510,84.261734 
	C79.448341,84.013687 79.891190,84.006004 80.666481,83.986343 
	C82.391014,83.983223 83.783112,83.992088 85.594559,84.015823 
	C86.013916,84.030701 86.001610,84.504509 86.005730,84.740204 
	C84.617767,84.985573 83.225677,84.995247 81.417175,85.016937 
	C80.557274,85.019478 80.113800,85.010010 79.337997,84.991684 
	C79.005684,84.982819 79.001534,84.502090 79.003510,84.261734 
z"/>
<path fill="#CA300C" opacity="1.000000" stroke="none" 
	d="
M41.987652,32.895355 
	C44.992165,32.918102 47.996674,32.940845 51.724762,33.164242 
	C53.273914,35.840130 54.099495,38.315369 54.905823,41.087700 
	C54.855125,41.580765 54.823681,41.776733 54.389439,41.977726 
	C49.519043,40.828098 45.107616,40.376663 40.730354,42.998260 
	C40.516918,42.971844 40.091900,42.905731 40.058517,42.589531 
	C40.015850,41.849720 40.006565,41.426113 40.161552,40.794273 
	C40.375195,40.416264 40.424564,40.246479 40.635441,39.855377 
	C40.856014,39.089752 40.915081,38.545452 41.274193,37.847740 
	C41.712040,36.094677 41.849846,34.495014 41.987652,32.895355 
z"/>
<path fill="#C9320D" opacity="1.000000" stroke="none" 
	d="
M20.866854,37.337986 
	C20.869806,36.937874 20.919439,36.758423 21.208424,36.190933 
	C21.708427,35.614300 21.865356,35.361355 21.926023,34.752831 
	C21.925951,34.267525 21.918417,34.073452 21.910885,33.879383 
	C25.305130,33.571194 28.699375,33.263008 32.552372,33.265022 
	C34.201561,35.071438 35.392002,36.567654 36.646072,38.265892 
	C36.709698,38.467918 36.778397,38.881680 36.632629,39.171852 
	C35.937916,40.631977 35.388973,41.801929 34.488747,42.930138 
	C31.091745,42.254345 28.046022,41.620293 24.705608,40.962765 
	C23.941296,40.625317 23.471672,40.311348 22.955379,39.681900 
	C22.278532,38.910091 21.648350,38.453758 21.018167,37.997425 
	C21.018167,37.997425 20.913536,37.558643 20.866854,37.337986 
z"/>
<path fill="#D34D13" opacity="1.000000" stroke="none" 
	d="
M54.925076,40.790607 
	C54.099495,38.315369 53.273914,35.840130 52.171406,33.128532 
	C55.080132,32.689957 58.265781,32.487736 61.730053,32.574371 
	C61.590534,34.123222 61.172398,35.383217 60.076626,36.840885 
	C58.545307,37.963112 57.691624,38.887661 56.674973,40.046951 
	C55.983032,40.451332 55.454052,40.620968 54.925076,40.790607 
z"/>
<path fill="#D55013" opacity="1.000000" stroke="none" 
	d="
M36.582443,38.063869 
	C35.392002,36.567654 34.201561,35.071438 33.001823,33.218880 
	C35.814857,32.679043 38.637188,32.495548 41.723587,32.603703 
	C41.849846,34.495014 41.712040,36.094677 40.957176,37.721245 
	C39.087555,37.853390 37.834999,37.958630 36.582443,38.063869 
z"/>
<path fill="#D25E1B" opacity="1.000000" stroke="none" 
	d="
M21.484356,33.921814 
	C21.918417,34.073452 21.925951,34.267525 21.506531,34.738998 
	C19.384882,35.011086 17.690186,35.005768 15.995490,35.000454 
	C15.711246,34.906731 15.471693,34.746315 15.167353,34.332329 
	C17.057859,34.085052 19.057844,34.024651 21.484356,33.921814 
z"/>
<path fill="#D25E1B" opacity="1.000000" stroke="none" 
	d="
M13.501926,33.977028 
	C13.413525,33.965168 13.212139,33.556564 13.154291,33.338081 
	C13.408092,33.153896 13.625725,33.315113 13.756765,33.816036 
	C13.764187,34.028824 13.590327,33.988888 13.501926,33.977028 
z"/>
<path fill="#FCC749" opacity="1.000000" stroke="none" 
	d="
M54.905823,41.087700 
	C55.454052,40.620968 55.983032,40.451332 57.021957,40.134846 
	C58.425423,40.281555 59.318943,40.575119 60.212460,40.868679 
	C60.267223,41.039913 60.321991,41.211147 60.220016,41.904076 
	C59.978443,42.621288 59.893616,42.816807 59.420479,43.022591 
	C53.558884,44.538445 56.760361,48.983505 56.063072,52.064346 
	C55.414471,54.930096 56.838490,56.386883 59.921448,56.420280 
	C59.924664,58.896103 59.877048,60.936741 59.459557,62.981430 
	C57.432137,61.653950 55.774582,60.322422 54.075897,58.655128 
	C53.974491,57.872528 53.914211,57.425690 53.902199,56.543610 
	C53.912594,54.066067 53.874718,52.023773 53.887970,49.566799 
	C53.910465,47.760986 53.881824,46.369846 53.922882,44.665047 
	C54.259129,43.558491 54.525681,42.765598 54.792229,41.972706 
	C54.823681,41.776733 54.855125,41.580765 54.905823,41.087700 
z"/>
<path fill="#D44F18" opacity="1.000000" stroke="none" 
	d="
M59.808784,43.012325 
	C59.893616,42.816807 59.978443,42.621288 60.258347,42.171013 
	C61.088753,41.945045 61.724083,41.973843 62.911427,42.263851 
	C66.969765,41.679890 70.476082,40.834721 74.011337,40.411774 
	C74.182938,41.379784 74.325592,41.925571 74.489525,42.746555 
	C74.357841,43.350994 74.204895,43.680241 73.637527,44.004932 
	C68.530540,43.537861 65.226479,46.188709 61.691864,49.002987 
	C60.979740,48.990883 60.572830,48.982780 60.111588,48.551155 
	C59.974430,46.422531 59.891605,44.717430 59.808784,43.012325 
z"/>
<path fill="#CD4013" opacity="1.000000" stroke="none" 
	d="
M73.982407,39.989552 
	C70.476082,40.834721 66.969765,41.679890 63.231949,42.268288 
	C66.072151,40.010056 69.143837,38.008591 72.578148,35.997414 
	C73.112312,35.993702 73.283852,35.999706 73.947083,36.131317 
	C74.659218,36.528011 74.879677,36.799095 75.063614,37.420803 
	C74.976097,38.474964 74.925087,39.178505 74.650597,39.904320 
	C74.427124,39.926590 73.982407,39.989552 73.982407,39.989552 
z"/>
<path fill="#E79232" opacity="1.000000" stroke="none" 
	d="
M60.225033,40.482147 
	C59.318943,40.575119 58.425423,40.281555 57.184921,39.900101 
	C57.691624,38.887661 58.545307,37.963112 59.779915,37.011948 
	C60.186428,38.022091 60.212017,39.058853 60.225033,40.482147 
z"/>
<path fill="#DC812C" opacity="1.000000" stroke="none" 
	d="
M81.688065,33.851288 
	C81.981613,34.404064 81.991119,34.863232 82.008575,35.666481 
	C82.016525,36.010559 81.534546,36.016476 80.919769,36.009941 
	C79.188660,35.659023 78.072334,35.314640 76.956001,34.970261 
	C78.438675,34.566067 79.921356,34.161873 81.688065,33.851288 
z"/>
<path fill="#D96C1E" opacity="1.000000" stroke="none" 
	d="
M76.621834,34.975777 
	C78.072334,35.314640 79.188660,35.659023 80.678802,36.005573 
	C81.038902,36.213737 81.025185,36.419739 80.626312,36.868370 
	C79.518127,37.109394 78.795097,37.107788 77.699089,37.072823 
	C76.584114,37.049702 75.842125,37.059944 75.100128,37.070183 
	C74.879677,36.799095 74.659218,36.528011 74.204544,36.133934 
	C74.742767,35.667728 75.515221,35.324512 76.621834,34.975777 
z"/>
<path fill="#FEE281" opacity="1.000000" stroke="none" 
	d="
M32.967445,27.668140 
	C31.481489,27.822523 29.964350,27.645731 28.195045,27.179199 
	C29.055609,26.259415 30.168335,25.629374 31.602085,24.936075 
	C32.260826,25.694201 32.598545,26.515583 32.967445,27.668140 
z"/>
<path fill="#FDC643" opacity="1.000000" stroke="none" 
	d="
M34.900761,63.977139 
	C34.928272,63.220554 34.955784,62.463974 34.876160,61.103729 
	C34.584019,60.226444 34.333500,60.041519 34.017460,59.945305 
	C34.017460,59.945305 34.001297,59.969490 34.016426,59.973015 
	C34.018837,59.228642 34.006115,58.480736 33.989491,56.944283 
	C33.953770,54.764465 33.921951,53.373196 33.930832,51.627144 
	C33.826420,49.916653 33.681309,48.560940 33.601135,46.915169 
	C33.633171,46.231533 33.600266,45.837963 33.798405,45.319412 
	C34.393097,44.812733 34.756737,44.431030 35.334900,44.023018 
	C35.549419,43.996700 35.980824,43.969547 35.988770,44.430519 
	C36.001949,48.258205 36.007187,51.624928 36.009323,55.380989 
	C35.827274,58.527542 36.837406,60.191109 39.919666,60.395927 
	C39.688011,63.176434 39.418274,65.544884 38.737694,67.941345 
	C37.504002,67.948883 36.681152,67.928413 35.859901,67.568008 
	C35.541256,66.144424 35.221008,65.060783 34.900761,63.977139 
z"/>
<path fill="#DF651D" opacity="1.000000" stroke="none" 
	d="
M33.890133,51.981926 
	C33.921951,53.373196 33.953770,54.764465 33.946640,56.571754 
	C32.309635,56.062016 30.620567,55.261402 29.134983,54.180996 
	C26.940193,52.584805 24.890068,50.789688 22.406567,48.632034 
	C22.048231,47.118435 22.061670,46.052086 22.421658,45.034241 
	C26.475513,47.382477 30.182823,49.682201 33.890133,51.981926 
z"/>
<path fill="#F39F2E" opacity="1.000000" stroke="none" 
	d="
M22.075111,44.985733 
	C22.061670,46.052086 22.048231,47.118435 22.058849,48.583794 
	C22.033779,49.785046 21.984650,50.587296 21.858183,51.787994 
	C21.400948,52.129288 21.021048,52.072136 20.353153,51.996971 
	C20.042183,49.285351 20.019209,46.591736 20.011303,43.448616 
	C20.026373,42.999111 20.508108,42.999706 20.977158,43.011818 
	C21.446205,43.023930 21.902456,43.048031 21.931767,43.370831 
	C21.999088,44.124332 22.037100,44.555031 22.075111,44.985733 
z"/>
<path fill="#F19121" opacity="1.000000" stroke="none" 
	d="
M24.952326,71.857635 
	C24.971497,70.187599 24.990667,68.517563 25.377697,66.381813 
	C28.640385,64.969948 31.402514,64.483757 33.015842,68.245880 
	C33.024933,68.480782 33.056210,68.950050 33.011497,69.269989 
	C32.643841,70.376717 32.320896,71.163490 31.558607,71.951889 
	C29.063614,71.921547 27.007971,71.889587 24.952326,71.857635 
z"/>
<path fill="#EC8520" opacity="1.000000" stroke="none" 
	d="
M33.006752,68.010986 
	C31.402514,64.483757 28.640385,64.969948 25.379768,65.963715 
	C26.868320,61.017944 27.208572,60.939182 34.536575,63.934227 
	C35.221008,65.060783 35.541256,66.144424 35.505280,67.579590 
	C34.434956,67.957726 33.720852,67.984360 33.006752,68.010986 
z"/>
<path fill="#FDCF3F" opacity="1.000000" stroke="none" 
	d="
M24.621452,71.911110 
	C27.007971,71.889587 29.063614,71.921547 31.568266,72.195427 
	C32.017273,72.437347 32.046120,72.923050 31.613989,72.945129 
	C29.449219,72.986092 27.716578,73.004967 25.983938,73.023834 
	C25.126911,72.875519 24.269886,72.727203 23.184868,72.343224 
	C23.401442,72.059906 23.846008,72.012245 24.621452,71.911110 
z"/>
<path fill="#E26F1E" opacity="1.000000" stroke="none" 
	d="
M34.108406,60.158318 
	C34.333500,60.041519 34.584019,60.226444 34.833450,60.726845 
	C34.599854,60.837742 34.367012,60.643646 34.108406,60.158318 
z"/>
<path fill="#E4A443" opacity="1.000000" stroke="none" 
	d="
M78.072067,37.106186 
	C78.795097,37.107788 79.518127,37.109394 80.596085,37.176575 
	C80.820648,44.297531 80.690292,51.352917 80.267868,58.709267 
	C79.975792,59.010235 79.490891,59.002163 79.242096,58.531815 
	C78.996284,53.902233 78.873222,49.737789 79.044861,45.585526 
	C79.167130,42.627899 77.871384,41.676659 75.110657,41.816002 
	C75.055206,41.375629 75.047241,41.197880 75.324036,40.866161 
	C76.429886,39.510185 77.250977,38.308186 78.072067,37.106186 
z"/>
<path fill="#FEDC62" opacity="1.000000" stroke="none" 
	d="
M25.989323,73.289543 
	C27.716578,73.004967 29.449219,72.986092 32.062645,72.961777 
	C35.956474,72.945114 38.969517,72.933899 42.446053,72.946976 
	C46.933716,72.990952 50.957882,73.010635 54.983585,73.338379 
	C54.974724,74.057365 54.964325,74.468292 54.490330,74.908249 
	C46.344498,74.984741 38.662266,75.032227 30.980030,75.079712 
	C29.486496,74.930214 27.992962,74.780716 26.249630,74.358986 
	C25.998125,73.909592 25.996416,73.732422 25.989323,73.289543 
z"/>
<path fill="#D54B16" opacity="1.000000" stroke="none" 
	d="
M21.902456,43.048031 
	C21.902456,43.048031 21.446205,43.023930 21.218025,43.010994 
	C21.002859,42.244370 21.015877,41.490685 21.372211,40.366589 
	C22.144369,39.996582 22.573208,39.996979 23.002048,39.997379 
	C23.471672,40.311348 23.941296,40.625317 24.935047,41.229420 
	C28.161903,42.827835 30.864630,44.136112 33.567356,45.444389 
	C33.600266,45.837963 33.633171,46.231533 33.184380,46.822399 
	C29.102608,45.695805 25.502531,44.371918 21.902456,43.048031 
z"/>
<path fill="#CF3E12" opacity="1.000000" stroke="none" 
	d="
M22.955379,39.681900 
	C22.573208,39.996979 22.144369,39.996582 21.394880,39.990337 
	C21.041197,39.543205 21.008160,39.101921 20.996645,38.329029 
	C21.648350,38.453758 22.278532,38.910091 22.955379,39.681900 
z"/>
<path fill="#DD7724" opacity="1.000000" stroke="none" 
	d="
M16.255219,35.271812 
	C17.690186,35.005768 19.384882,35.011086 21.499069,35.030228 
	C21.865356,35.361355 21.708427,35.614300 21.248703,35.914566 
	C19.538071,35.865215 18.026508,35.704193 16.255219,35.271812 
z"/>
<path fill="#DB671F" opacity="1.000000" stroke="none" 
	d="
M74.113007,55.987949 
	C74.063057,56.433598 74.013107,56.879242 73.597275,57.703247 
	C72.153847,59.054348 71.076317,60.027096 69.665039,60.945396 
	C67.887024,58.927193 66.442749,56.963444 65.004791,54.629593 
	C66.195702,49.679207 69.143349,47.585754 73.908821,48.428711 
	C74.009911,51.243248 74.061462,53.615601 74.113007,55.987949 
z"/>
<path fill="#FBC851" opacity="1.000000" stroke="none" 
	d="
M74.445877,56.064968 
	C74.061462,53.615601 74.009911,51.243248 73.957626,48.033096 
	C73.988579,46.133354 74.020264,45.071419 74.051941,44.009483 
	C74.204895,43.680241 74.357841,43.350994 74.661102,42.650269 
	C74.811401,42.278786 75.158142,42.078632 75.158142,42.078632 
	C77.871384,41.676659 79.167130,42.627899 79.044861,45.585526 
	C78.873222,49.737789 78.996284,53.902233 78.999626,58.528976 
	C77.596893,58.044983 76.187820,57.093483 74.445877,56.064968 
z"/>
<path fill="#DF711D" opacity="1.000000" stroke="none" 
	d="
M69.998779,60.999847 
	C71.076317,60.027096 72.153847,59.054348 73.546219,58.035912 
	C73.950027,61.124722 74.038994,64.259216 74.348709,67.959152 
	C74.569458,68.524597 74.488396,68.937225 74.203552,68.975449 
	C73.609879,69.667007 73.301048,70.320343 72.597931,70.988464 
	C71.152458,71.044289 70.101280,71.085335 69.035454,70.687088 
	C69.346802,67.165138 69.672791,64.082489 69.998779,60.999847 
z"/>
<path fill="#F7B830" opacity="1.000000" stroke="none" 
	d="
M72.992218,70.973679 
	C73.301048,70.320343 73.609879,69.667007 74.677177,68.995987 
	C76.976250,68.992165 78.516869,69.006020 80.057480,69.019867 
	C80.226318,69.033737 80.395157,69.047592 80.815742,69.101151 
	C81.047684,69.831009 81.027870,70.521172 81.022774,71.555931 
	C78.658173,71.951744 76.278854,72.002968 73.449936,71.786987 
	C72.997620,71.337746 72.994919,71.155708 72.992218,70.973679 
z"/>
<path fill="#FBCF52" opacity="1.000000" stroke="none" 
	d="
M79.772705,68.737442 
	C78.516869,69.006020 76.976250,68.992165 74.962021,68.957764 
	C74.488396,68.937225 74.569458,68.524597 74.550362,68.314331 
	C76.183487,68.221039 77.835709,68.338020 79.772705,68.737442 
z"/>
<path fill="#FBC436" opacity="1.000000" stroke="none" 
	d="
M72.597931,70.988464 
	C72.994919,71.155708 72.997620,71.337746 73.005402,71.793549 
	C72.535416,72.366982 72.060333,72.666634 70.826210,72.986061 
	C65.038788,73.013992 60.010422,73.022156 54.982052,73.030319 
	C50.957882,73.010635 46.933716,72.990952 42.451683,72.628044 
	C41.995705,71.857712 41.997593,71.430595 42.345268,71.025131 
	C43.783848,71.328712 44.876640,71.610649 46.303349,71.931793 
	C47.083672,71.946632 47.530079,71.922264 48.356998,71.923782 
	C50.521397,70.959320 52.305290,69.968971 54.447536,69.035004 
	C56.902630,69.069138 58.999371,69.046890 61.105217,69.405930 
	C63.223354,73.411263 66.145546,72.216537 69.050095,71.126389 
	C70.101280,71.085335 71.152458,71.044289 72.597931,70.988464 
z"/>
<path fill="#FBCF52" opacity="1.000000" stroke="none" 
	d="
M54.983585,73.338371 
	C60.010422,73.022156 65.038788,73.013992 70.534111,73.013557 
	C71.000420,73.188522 70.999779,73.355759 70.679047,73.790138 
	C69.933121,74.076134 69.507278,74.095001 68.778358,74.097649 
	C67.989166,74.383713 67.503052,74.685982 67.016937,74.988251 
	C63.655369,75.322784 60.293800,75.657310 56.351158,75.759674 
	C55.498035,75.311409 55.225979,75.095322 54.953926,74.879227 
	C54.964325,74.468292 54.974724,74.057365 54.983585,73.338371 
z"/>
<path fill="#E89C28" opacity="1.000000" stroke="none" 
	d="
M69.081436,74.113861 
	C69.507278,74.095001 69.933121,74.076134 70.678154,74.041000 
	C72.077995,74.058174 73.158653,74.091629 74.628876,74.541458 
	C75.021568,75.942528 75.024696,76.927200 75.027824,77.911880 
	C74.858253,77.937393 74.688683,77.962906 74.264893,78.027603 
	C72.353386,77.303047 70.696091,76.539322 69.041199,75.164886 
	C69.043587,74.554161 69.081436,74.113861 69.081436,74.113861 
z"/>
<path fill="#E08E23" opacity="1.000000" stroke="none" 
	d="
M75.378326,77.937134 
	C75.024696,76.927200 75.021568,75.942528 75.030693,74.594429 
	C76.126930,74.198311 77.210907,74.165611 78.796158,74.423309 
	C79.223099,75.585228 79.148773,76.456749 79.074448,77.328270 
	C77.959244,77.539642 76.844032,77.751015 75.378326,77.937134 
z"/>
<path fill="#D88221" opacity="1.000000" stroke="none" 
	d="
M79.455093,77.280273 
	C79.148773,76.456749 79.223099,75.585228 79.200638,74.477058 
	C80.177162,74.189575 81.250458,74.138733 82.729507,74.148376 
	C83.126839,75.031059 83.118408,75.853256 82.998566,76.928917 
	C81.870018,77.199005 80.852882,77.215645 79.455093,77.280273 
z"/>
<path fill="#DD861C" opacity="1.000000" stroke="none" 
	d="
M87.780312,77.530479 
	C87.962196,77.686966 87.467636,77.755035 87.467636,77.755035 
	C87.467636,77.755035 87.011490,77.551628 86.835632,77.369400 
	C86.994911,77.138115 87.307800,77.200386 87.780312,77.530479 
z"/>
<path fill="#F8BD2E" opacity="1.000000" stroke="none" 
	d="
M54.490330,74.908249 
	C55.225979,75.095322 55.498035,75.311409 55.900055,75.754028 
	C53.542645,76.794273 51.055267,77.608002 48.283142,78.688171 
	C42.638863,78.965454 37.279324,78.976311 31.450775,78.960938 
	C30.985899,77.906082 30.990034,76.877449 30.987101,75.464264 
	C38.662266,75.032227 46.344498,74.984741 54.490330,74.908249 
z"/>
<path fill="#EEB140" opacity="1.000000" stroke="none" 
	d="
M68.778358,74.097649 
	C69.081436,74.113861 69.043587,74.554161 69.029915,74.774635 
	C68.571724,74.994843 68.127213,74.994583 67.349815,74.991287 
	C67.503052,74.685982 67.989166,74.383713 68.778358,74.097649 
z"/>
<path fill="#F1C13F" opacity="1.000000" stroke="none" 
	d="
M61.744713,80.007919 
	C61.726112,80.116127 61.448708,80.224747 61.069958,80.180061 
	C61.141041,80.020622 61.313473,80.014481 61.744713,80.007919 
z"/>
<path fill="#D03E12" opacity="1.000000" stroke="none" 
	d="
M54.389435,41.977726 
	C54.525681,42.765598 54.259129,43.558491 53.534912,44.660931 
	C49.393105,45.310146 45.708965,45.649815 41.986580,45.690269 
	C41.612152,44.924183 41.275963,44.457310 40.962006,43.749084 
	C40.984238,43.507732 40.943790,43.024677 40.943790,43.024677 
	C45.107616,40.376663 49.519043,40.828098 54.389435,41.977726 
z"/>
<path fill="#ED9C35" opacity="1.000000" stroke="none" 
	d="
M35.980824,43.969547 
	C35.980824,43.969547 35.549419,43.996700 35.262737,43.754105 
	C34.930714,43.331638 34.885372,43.151760 34.840027,42.971886 
	C35.388973,41.801929 35.937916,40.631977 37.017193,39.244991 
	C38.522999,39.377537 39.498466,39.727116 40.473938,40.076694 
	C40.424564,40.246479 40.375195,40.416264 39.813442,40.799644 
	C38.215382,41.684940 37.129696,42.356632 36.023926,43.263153 
	C36.003845,43.497986 35.980824,43.969547 35.980824,43.969547 
z"/>
<path fill="#E5872C" opacity="1.000000" stroke="none" 
	d="
M40.635441,39.855377 
	C39.498466,39.727116 38.522999,39.377537 37.162964,38.954819 
	C36.778397,38.881680 36.709698,38.467918 36.646072,38.265892 
	C37.834999,37.958630 39.087555,37.853390 40.657127,37.874649 
	C40.915081,38.545452 40.856014,39.089752 40.635441,39.855377 
z"/>
<path fill="#F7BA49" opacity="1.000000" stroke="none" 
	d="
M36.044010,43.028324 
	C37.129696,42.356632 38.215382,41.684940 39.649174,41.007877 
	C40.006565,41.426113 40.015850,41.849720 40.011631,42.637802 
	C39.998131,43.002281 39.906597,43.096630 39.523361,43.060314 
	C38.108086,43.025440 37.076050,43.026882 36.044010,43.028324 
z"/>
<path fill="#F7BA49" opacity="1.000000" stroke="none" 
	d="
M40.730354,42.998260 
	C40.943790,43.024677 40.984238,43.507732 40.734169,43.761292 
	C40.484097,44.014854 40.028263,44.044228 40.006264,43.806248 
	C39.984261,43.568268 39.906597,43.096630 39.906597,43.096630 
	C39.906597,43.096630 39.998131,43.002281 40.045013,42.954006 
	C40.091900,42.905731 40.516918,42.971844 40.730354,42.998260 
z"/>
<path fill="#CF3E12" opacity="1.000000" stroke="none" 
	d="
M34.488750,42.930138 
	C34.885372,43.151760 34.930714,43.331638 35.048218,43.780422 
	C34.756737,44.431030 34.393097,44.812733 33.798405,45.319412 
	C30.864630,44.136112 28.161903,42.827835 25.229736,41.252899 
	C28.046022,41.620293 31.091745,42.254345 34.488750,42.930138 
z"/>
<path fill="#D9631B" opacity="1.000000" stroke="none" 
	d="
M69.035454,70.687088 
	C66.145546,72.216537 63.223354,73.411263 61.283482,69.311409 
	C61.331581,68.544540 61.210529,68.253494 60.915367,67.633163 
	C60.437321,65.861710 60.133377,64.419548 59.829430,62.977379 
	C59.877048,60.936741 59.924664,58.896103 59.968369,55.984505 
	C60.031616,53.067253 60.098770,51.020966 60.165924,48.974678 
	C60.572830,48.982780 60.979740,48.990883 61.692459,49.419655 
	C62.298622,51.967003 60.856121,55.107162 64.998474,54.999695 
	C66.442749,56.963444 67.887024,58.927193 69.665039,60.945396 
	C69.672791,64.082489 69.346802,67.165138 69.035454,70.687088 
z"/>
<path fill="#DA5A19" opacity="1.000000" stroke="none" 
	d="
M45.969437,71.892578 
	C44.876640,71.610649 43.783848,71.328712 42.347069,70.733185 
	C42.030323,69.527641 42.057564,68.635674 42.059593,67.292511 
	C42.028831,61.224987 42.023285,55.608669 42.391811,49.988335 
	C46.455643,47.819122 50.146263,48.984123 53.836838,49.981476 
	C53.874718,52.023773 53.912594,54.066067 53.525879,56.492031 
	C50.351719,56.136829 47.147198,54.390423 46.111202,58.889313 
	C45.427845,61.856865 45.358337,64.965775 45.046021,68.346817 
	C45.375183,69.752357 45.672310,70.822472 45.969437,71.892578 
z"/>
<path fill="#D74D17" opacity="1.000000" stroke="none" 
	d="
M53.887970,49.566799 
	C50.146263,48.984123 46.455643,47.819122 42.383675,49.588425 
	C42.009254,48.124847 42.017036,47.057163 42.024822,45.989483 
	C45.708965,45.649815 49.393105,45.310146 53.465218,44.974594 
	C53.881824,46.369846 53.910465,47.760986 53.887970,49.566799 
z"/>
<path fill="#FDCD56" opacity="1.000000" stroke="none" 
	d="
M60.111588,48.551155 
	C60.098770,51.020966 60.031616,53.067253 59.917538,55.549320 
	C56.838490,56.386883 55.414471,54.930096 56.063072,52.064346 
	C56.760361,48.983505 53.558884,44.538445 59.420479,43.022591 
	C59.891605,44.717430 59.974430,46.422531 60.111588,48.551155 
z"/>
<path fill="#DD631B" opacity="1.000000" stroke="none" 
	d="
M45.013977,68.011391 
	C45.358337,64.965775 45.427845,61.856865 46.111202,58.889313 
	C47.147198,54.390423 50.351719,56.136829 53.477608,56.927277 
	C53.914211,57.425690 53.974491,57.872528 54.002499,58.900375 
	C53.932018,59.647614 53.893810,59.813835 53.464169,59.986721 
	C48.592415,59.522732 47.122437,62.082745 47.012451,66.343987 
	C47.011566,67.117500 47.011227,67.559517 46.677910,68.001808 
	C45.901283,68.005188 45.457626,68.008286 45.013977,68.011391 
z"/>
<path fill="#FAC13B" opacity="1.000000" stroke="none" 
	d="
M53.855602,59.980057 
	C53.893810,59.813835 53.932018,59.647614 54.043633,59.236141 
	C55.774582,60.322422 57.432137,61.653950 59.459560,62.981430 
	C60.133377,64.419548 60.437321,65.861710 60.473312,67.645126 
	C58.171238,67.999870 56.137112,68.013367 54.071846,67.606636 
	C53.992508,65.783165 53.944309,64.379906 53.927948,62.602554 
	C53.925060,61.478992 53.890331,60.729523 53.855602,59.980057 
z"/>
<path fill="#D95D1D" opacity="1.000000" stroke="none" 
	d="
M65.004791,54.629593 
	C60.856121,55.107162 62.298622,51.967003 61.997677,49.423656 
	C65.226479,46.188709 68.530540,43.537861 73.637527,44.004932 
	C74.020264,45.071419 73.988579,46.133354 73.908096,47.590904 
	C69.143349,47.585754 66.195702,49.679207 65.004791,54.629593 
z"/>
<path fill="#E16D1C" opacity="1.000000" stroke="none" 
	d="
M75.110657,41.816002 
	C75.158142,42.078632 74.811401,42.278786 74.639832,42.375072 
	C74.325592,41.925571 74.182938,41.379784 74.011337,40.411774 
	C73.982407,39.989552 74.427124,39.926590 74.699860,40.188316 
	C74.994827,40.640072 75.017044,40.830105 75.039268,41.020134 
	C75.047241,41.197880 75.055206,41.375629 75.110657,41.816002 
z"/>
<path fill="#E28A30" opacity="1.000000" stroke="none" 
	d="
M75.324036,40.866161 
	C75.017044,40.830105 74.994827,40.640072 74.923340,40.166046 
	C74.925087,39.178505 74.976097,38.474964 75.063614,37.420803 
	C75.842125,37.059944 76.584114,37.049702 77.699089,37.072823 
	C77.250977,38.308186 76.429886,39.510185 75.324036,40.866161 
z"/>
<path fill="#E67A1F" opacity="1.000000" stroke="none" 
	d="
M41.986580,45.690269 
	C42.017036,47.057163 42.009254,48.124847 42.009605,49.592438 
	C42.023285,55.608669 42.028831,61.224987 41.787865,67.366470 
	C41.357723,67.927849 41.174099,67.964073 40.683083,67.982117 
	C39.966644,67.947075 39.557590,67.930206 39.148537,67.913338 
	C39.418274,65.544884 39.688011,63.176434 39.959976,59.981308 
	C39.932896,57.766109 39.903580,56.377590 39.918961,54.534882 
	C39.985191,50.735203 40.006725,47.389717 40.028259,44.044228 
	C40.028263,44.044228 40.484097,44.014854 40.711937,44.002647 
	C41.275963,44.457310 41.612152,44.924183 41.986580,45.690269 
z"/>
<path fill="#FDCE58" opacity="1.000000" stroke="none" 
	d="
M40.006260,43.806248 
	C40.006725,47.389717 39.985191,50.735203 39.534698,54.538406 
	C38.074635,54.994633 37.043530,54.993141 36.012424,54.991646 
	C36.007187,51.624928 36.001949,48.258205 35.988770,44.430519 
	C35.980824,43.969547 36.003845,43.497986 36.023926,43.263153 
	C37.076050,43.026882 38.108086,43.025440 39.523361,43.060314 
	C39.906597,43.096630 39.984261,43.568268 40.006260,43.806248 
z"/>
<path fill="#DA581A" opacity="1.000000" stroke="none" 
	d="
M21.931767,43.370831 
	C25.502531,44.371918 29.102608,45.695805 33.119438,47.112461 
	C33.681309,48.560940 33.826420,49.916653 33.930832,51.627144 
	C30.182823,49.682201 26.475513,47.382477 22.421658,45.034241 
	C22.037100,44.555031 21.999088,44.124332 21.931767,43.370831 
z"/>
<path fill="#FDCC4F" opacity="1.000000" stroke="none" 
	d="
M36.009323,55.380989 
	C37.043530,54.993141 38.074635,54.994633 39.489998,54.992596 
	C39.903580,56.377590 39.932896,57.766109 39.921898,59.569252 
	C36.837406,60.191109 35.827274,58.527542 36.009323,55.380989 
z"/>
<path fill="#FED452" opacity="1.000000" stroke="none" 
	d="
M38.737694,67.941345 
	C39.557590,67.930206 39.966644,67.947075 40.605835,68.343796 
	C38.242722,68.799118 35.649464,68.874580 33.056210,68.950050 
	C33.056210,68.950050 33.024933,68.480782 33.015842,68.245880 
	C33.720852,67.984360 34.434956,67.957726 35.503677,67.919525 
	C36.681152,67.928413 37.504002,67.948883 38.737694,67.941345 
z"/>
<path fill="#FBBC30" opacity="1.000000" stroke="none" 
	d="
M33.011497,69.269989 
	C35.649464,68.874580 38.242722,68.799118 40.913223,68.361977 
	C41.174099,67.964073 41.357723,67.927849 41.813076,67.817673 
	C42.057564,68.635674 42.030323,69.527641 42.001282,70.711548 
	C41.997593,71.430595 41.995705,71.857712 41.988186,72.603752 
	C38.969517,72.933899 35.956474,72.945114 32.494778,72.939690 
	C32.046120,72.923050 32.017273,72.437347 32.007614,72.193810 
	C32.320896,71.163490 32.643841,70.376717 33.011497,69.269989 
z"/>
<path fill="#E87C1D" opacity="1.000000" stroke="none" 
	d="
M53.896111,62.976650 
	C53.944309,64.379906 53.992508,65.783165 54.046024,67.844185 
	C54.051342,68.501953 54.089184,68.978630 54.089184,68.978630 
	C52.305290,69.968971 50.521397,70.959320 48.364948,71.570915 
	C47.665222,70.128616 47.338058,69.065071 47.010887,68.001526 
	C47.011227,67.559517 47.011566,67.117500 47.351433,66.280426 
	C49.759346,64.915794 51.827728,63.946224 53.896111,62.976650 
z"/>
<path fill="#FDCB48" opacity="1.000000" stroke="none" 
	d="
M54.447536,69.035004 
	C54.089184,68.978630 54.051342,68.501953 54.077164,68.264404 
	C56.137112,68.013367 58.171238,67.999870 60.647419,67.974411 
	C61.210529,68.253494 61.331581,68.544540 61.274376,68.930115 
	C58.999371,69.046890 56.902630,69.069138 54.447536,69.035004 
z"/>
<path fill="#E16D1C" opacity="1.000000" stroke="none" 
	d="
M46.677914,68.001808 
	C47.338058,69.065071 47.665222,70.128616 47.984440,71.545029 
	C47.530079,71.922264 47.083672,71.946632 46.303349,71.931793 
	C45.672310,70.822472 45.375183,69.752357 45.046017,68.346817 
	C45.457626,68.008286 45.901283,68.005188 46.677914,68.001808 
z"/>
<path fill="#E16D1C" opacity="1.000000" stroke="none" 
	d="
M53.927948,62.602554 
	C51.827728,63.946224 49.759346,64.915794 47.351978,65.948929 
	C47.122437,62.082745 48.592415,59.522732 53.464169,59.986721 
	C53.890331,60.729523 53.925060,61.478992 53.927948,62.602554 
z"/>
</svg>